<mxfile host="Electron" modified="2023-10-10T18:39:19.073Z" agent="Mozilla/5.0 (Macintosh; Intel Mac OS X 10_15_7) AppleWebKit/537.36 (KHTML, like Gecko) draw.io/22.0.2 Chrome/114.0.5735.289 Electron/25.8.4 Safari/537.36" etag="MkWzmPHrxRptC2Ss_b4n" version="22.0.2" type="device">
  <diagram name="Page-1" id="4w7KAPyr1heEr5JVn4j5">
    <mxGraphModel dx="954" dy="727" grid="1" gridSize="10" guides="1" tooltips="1" connect="1" arrows="1" fold="1" page="1" pageScale="1" pageWidth="827" pageHeight="583" math="0" shadow="0">
      <root>
        <mxCell id="0" />
        <mxCell id="1" parent="0" />
        <mxCell id="el7I0GfivZ1_OaW4JBx--1" value="" style="image;aspect=fixed;html=1;points=[];align=center;fontSize=12;image=img/lib/azure2/storage/Storage_Accounts.svg;" vertex="1" parent="1">
          <mxGeometry x="170" y="230" width="65" height="52" as="geometry" />
        </mxCell>
        <mxCell id="el7I0GfivZ1_OaW4JBx--11" style="edgeStyle=orthogonalEdgeStyle;rounded=0;orthogonalLoop=1;jettySize=auto;html=1;entryX=0.5;entryY=1;entryDx=0;entryDy=0;" edge="1" parent="1" source="el7I0GfivZ1_OaW4JBx--2" target="el7I0GfivZ1_OaW4JBx--4">
          <mxGeometry relative="1" as="geometry" />
        </mxCell>
        <mxCell id="el7I0GfivZ1_OaW4JBx--2" value="" style="shape=image;verticalLabelPosition=bottom;labelBackgroundColor=default;verticalAlign=top;aspect=fixed;imageAspect=0;image=data:image/png,iVBORw0KGgoAAAANSUhEUgAAAjUAAAJmCAYAAACkD3HBAAAYfWlDQ1BJQ0MgUHJvZmlsZQAAWIWVeQk4lV3X/77PfI75HPM8z2Se53meZxKO6ZjiGEOJpAwlEqJUkrFSKVQi0qCUoYckiWSoFCoqQ77bUM/zPu//+n/Xt8+17/07a6+91t5r7WndNwBcI76RkWEIRgDCI2KoDqYG/G7uHvzYaQDBP1YAAJsvOTpS387OCsbgd/mfaWkQ5oXTc5kNWf9d//9NRP+AaDIAkBeM/fyjyeEwvgsA6hQ5khoDAGaDLhQfE7mB98OYmQp3EMYFGzhoC1dvYL8t3LLJ4+RgCONeAHC0vr7UIADoR2A6fxw5CJZDvwrXESP8KREAsMAjx+iQg339AeCyg3mkw8N3b+BkGIvD/JEwroCxmt8/ZAb9h3y/P/J9fYP+4K1xbSacESU6Msx3z//RNP97Cg+L/a1DFM60wVQzh43xwzYcCt1tuYFpYTwb4Wdju2FrGP+g+G/ZHQAEITjWzHmLH8FNjjaE7bfhc4Scv6+RJYy5YWwSEWZjtU33C6SYmMMYthkigRJj7gRjdhgfDog2dtzmOUvd7bCtC9EYSDXU36Y/8qVu6t3QNRob6qy/Lf9LcID5tnwkfWKwkyuMCTAWjqO42MCYHsay0aGOlts8WonBhja/eaixDhv9F4axQ0CEqcGWfGRcINXEYZs/Kzz693iRZ4Mp5jbb+FpMsJPZln2QnWTfzf7DY0H2BkToO/+WExDtZvV7LP4BRsZbY0fOBEQ4O27L+REZY+Cw1RZFiAyz2+ZHCQaEmW7QBWGsFB3nuN0W5RIDT84t+ajAyBg7p61+ohJDfC3stvqDOgasgCEwAvwgFs5+YDcIAZRns02z8L+tGhPgC6ggCAQAmW3K7xaumzUR8NMRJIJPMAoA0X/aGWzWBoA4mL72h7r1lAGBm7Vxmy1CwRSMw4ElCIP/x262ivijzQW8gymU/9LuC2cy3N8wOG/U/7/pv6l/U/RhitU2Jfa3Rn6G35wYY4wRxgxjgpFAcaJ0UJooK/ipB2cFlBpK/fc4/uZHT6H70G/RA+gx9MtdlDTqv3ppDcZg+SbbtvD7py1QorBMZZQBShuWDktGsaI4gQxKCdajj9KFNSvDVMPtfm9Yhf9fsv9jBP/wxjYfXg6PwLPh9fDi/25JL0mv/EfKhq3/aZ+tvvr9sbfhn5p/6zf8h/X94dLy35zIw8gG5ENkO7IL2YJsAvzINmQzsht5ZwP/mV3vNmfXb20Om/0JheVQ/kuf77bODUtGy9XJvZdb3aqLCUiI2Vh4hrsj91ApQcEx/Prw6RDAbx5BlpXmV5BTUARg46zZ2r6+OmyeIRBrz9808kEAVOcBwC//TQv/CsAVeO3zW/9NE/GGlx8GgOopciw1bouG2nig4V2CAV5pHIAXCAFxeDwKQAVoAj1gDCyALXAC7sAbtnIwPM+pIB4kg1SQAbLBMXAClIAz4DyoBpfANdAEWkA7eACegF4wAF7Bs2cSfATzYAmsQBCEheggEsQB8UEikBSkAKlBOpAxZAU5QO6QDxQERUCxUDJ0AMqG8qES6BxUA12FbkLtUBfUB72ExqH30BdoGYFE0CKYETwIUcQOhBpCH2GJcELsRAQhohCJiHTEUUQxohxxEdGIaEc8QQwgxhAfEYtIgKRBsiIFkDJINaQh0hbpgQxEUpH7kFnIQmQ58jLyFuzn58gx5CzyJwqDIqH4UTLwDDZDOaPIqCjUPlQOqgRVjWpEdaKeo8ZR86hfaDo0N1oKrYE2R7uhg9Dx6Ax0IboSfQN9H15Lk+glDAbDihHDqMJr0R0TgknC5GBOY+oxdzF9mAnMIhaL5cBKYbWxtlhfbAw2A3sSexHbhu3HTmJ/4GhwfDgFnAnOAxeBS8MV4mpxrbh+3DRuBc+IF8Fr4G3x/vg9+Fx8Bf4Wvgc/iV8hMBHECNoEJ0IIIZVQTLhMuE8YIXyloaERpFGnsaeh0OynKaa5QvOIZpzmJy2RVpLWkNaLNpb2KG0V7V3al7Rf6ejoROn06DzoYuiO0tXQ3aMbpftBT6KXpTen96dPoS+lb6Tvp//MgGcQYdBn8GZIZChkaGDoYZhlxDOKMhoy+jLuYyxlvMn4gnGRicQkz2TLFM6Uw1TL1MU0Q8QSRYnGRH9iOvE88R5xgoQkCZEMSWTSAVIF6T5pkhnDLMZszhzCnM18ifkZ8zwLkUWJxYUlgaWU5Q7LGCuSVZTVnDWMNZf1Gusg6zIbD5s+WwBbJttltn627+xc7HrsAexZ7PXsA+zLHPwcxhyhHHkcTRyvOVGckpz2nPGcZZz3OWe5mLk0uchcWVzXuIa5EdyS3A7cSdznubu5F3l4eUx5InlO8tzjmeVl5dXjDeEt4G3lfc9H4tPho/AV8LXxfeBn4dfnD+Mv5u/knxfgFjATiBU4J/BMYEVQTNBZME2wXvC1EEFITShQqECoQ2hemE/YWjhZuE54WAQvoiYSLFIk8lDku6iYqKvoIdEm0RkxdjFzsUSxOrERcTpxXfEo8XLxvyQwEmoSoRKnJXolEZLKksGSpZI9UggpFSmK1GmpPmm0tLp0hHS59AsZWhl9mTiZOplxWVZZK9k02SbZzzuEd3jsyNvxcMcvOWW5MLkKuVfyRHkL+TT5W/JfFCQVyAqlCn8p0imaKKYoNisuKEkpBSiVKQ0pk5StlQ8pdyivqaiqUFUuq7xXFVb1UT2l+kKNWc1OLUftkTpa3UA9Rb1F/aeGikaMxjWNOU0ZzVDNWs0ZLTGtAK0KrQltQW1f7XPaYzr8Oj46Z3XGdAV0fXXLdd/qCen561XqTetL6IfoX9T/bCBnQDW4YfDdUMNwr+FdI6SRqVGW0TNjorGzcYnxqImgSZBJncm8qbJpkuldM7SZpVme2QtzHnOyeY35vIWqxV6LTktaS0fLEsu3VpJWVKtb1ghrC+vj1iM2IjYRNk22wNbc9rjtazsxuyi72/YYezv7UvspB3mHZIeHjiTHXY61jktOBk65Tq+cxZ1jnTtcGFy8XGpcvrsauea7jrntcNvr9sSd053i3uyB9XDxqPRY9DT2POE56aXsleE1uFNsZ8LOLm9O7zDvO7sYdvnuavBB+7j61Pqs+tr6lvsu+pn7nfKbJxuSi8gf/fX8C/zfB2gH5AdMB2oH5gfOBGkHHQ96H6wbXBg8SzGklFAWQsxCzoR8D7UNrQpdD3MNqw/HhfuE34wgRoRGdO7m3Z2wuy9SKjIjcixKI+pE1DzVkloZDUXvjG6OYYYv9d2x4rEHY8fjdOJK437Eu8Q3JDAlRCR075Hck7lnOtEk8UISKomc1JEskJyaPL5Xf++5fdA+v30dKUIp6SmT+033V6cSUkNTn6bJpeWnfTvgeuBWOk/6/vSJg6YH6zLoM6gZLw5pHjpzGHWYcvhZpmLmycxfWf5Zj7PlsguzV3PIOY+PyB8pPrJ+NPDos1yV3LJjmGMRxwbzdPOq85nyE/MnjlsfbyzgL8gq+HZi14muQqXCM0WEotiisWKr4uaTwiePnVwtCS4ZKDUorT/FfSrz1PfT/qf7y/TKLp/hOZN9Zvks5ezQOdNzjeWi5YXnMefjzk9VuFQ8vKB2oaaSszK7cq0qomqs2qG6s0a1pqaWuza3DlEXW/f+otfF3ktGl5ovy1w+V89an30FXIm98uGqz9XBa5bXOhrUGi5fF7l+6gbpRlYj1Lincb4puGms2b2576bFzY5bmrdu3Ja9XdUi0FJ6h+VObiuhNb11vS2xbfFu5N3Z9qD2iY5dHa/uud37q9O+89l9y/uPHpg8uPdQ/2HbI+1HLV0aXTcfqz1ueqLypLFbufvGU+WnN56pPGvsUe1p7lXvvdWn1dfar9vf/tzo+YO/zP96MmAz0DfoPDj0wuvF2JD/0MzLsJcLw3HDK6/2j6BHsl4zvi4c5R4tfyPxpn5MZezOuNF491vHt68myBMf30W/W51Mn6KbKpzmm66ZUZhpeW/yvveD54fJj5EfV2YzPjF9OvVZ/PP1Ob257nm3+ckF6sL6l5yvHF+rvil961i0WxxdCl9a+Z71g+NH9U+1nw+XXZenV+JXsavFaxJrt35Z/hpZD19fj/Sl+m5eBZBwRgQGAvClCgA6dwBIcNxG8NyKBbcTEr58IODSBZKFPiLS4RO1B5WBNsEgMU+wxbgIvBVBggZLM0vbT9dEX8VQyVjP1EzsID1h7mUZYn3DNsP+kWOBc5lrjQfBi+Uj8NMJEAWJQqzC7CJsouxi3OI8EvyS/FKC0sIyorJiO6Tl5OQVFVQUNZR0lY1VzFXN1UzUTTRMNA219LW1dDR0lfRk9UUNeAyZjQhG68ZfTaZMX5p1m7dYVFset0qxDrFxszW2U7YXc+ByZHTCOSNdIFeEG8od78HoyeElvFPGW2KXsA+fL6cfC5nkTwwgBbIGcQULUqRDVENNwlzCKRHJu/MjK6LOUouj82JyYjPjsuKPJhTvqU5sTXq1F+yTTtm1/2TqqwOC6bsPth/CHBbKVMgyyHbMCTySeDQvt/rY3bzh/MUCphMyhRZFgcUHTpaV3CztP/Xu9OIZ7FmOc5LlWudtK/wuxFQerCqsrq65Wfu4bvjih0s/63FX2K6KX9NtcL8edSOz8XRTfXPbza5bPbd7W57c6Wi92lZ6N6V9V4fGPeK9qc6b92sfnHqY/Sihy++x+RPZbvru2af3n53qiew16CP1TfRfe576l/2AyCBq8P2L7qH6l/nDMa9cRtRec75eHR190z52YTzz7e4J53dak8LwLFua/mvm+vuiDykfw2bJn8ifI+ey528szH3V+3ZuifS9+KfU8rPVlF8a6+v/8L8CcgaVj7bEsGBeYxtwOfggghGNJC0D7SrdNP0QwxDjG6Z3xE+kr8xLLGusK2xr7L841jiXuL5yz/FM8Y7w9fPfF7gpWCmULRwmYiUqKYYX+yDeJVEjmSVFkbaUkZGlk53b0Sd3Xb5IIVmRrGSvbKCioCqgRlRbV/+sMaLZpdWoXa6Toxuv56NvYaBgyGmEMHpv/MzkimmeWbS5k4WKJZvlitUb63s2tbZ5dkn2gQ6OjvpO8s4CLiRXrOuy20f3EY9uzzte9TvPeh/fdcgn2ZfqRyH7+nsEOAXaB9kEW1IsQ8xCNcNkwwUiWHbTRCIiV6N+UH9Gr8Wi44jxQgkae5wSo5MKk1v2TqXQ7OdLlUnTPmCT7ncwPuPIocrDbZnDWd9zmI8oHLXPjTh2JK8u/9HxdwXrhZxFysV2J0NLDpaeOdV8urds5syvc8zlEue1K+wukCtjqw5VF8P7XHfd3CXiZcV6xytRV3Ov1TV0Xh+58aUJ08xxU/KWxm2LFrc7ga0xbSl3U9sPdBy8l9F56P7hB1kPcx4d6Try+MiTI905T7OfZfYc6k3vS+3f+zzur6iB3YORL2KGkl4eHD7+qnyk4fWD0ZdvPo2Dt8QJwXfykzpT5tN+M2fff/qoPJv0qfXzr3nNhbgvl7++W2Rfsvye8qPh5/QK96rDWtavzm3/GyP0kTuQn1Ht6EMYR6w4dgF3E59BcKDhphmlPU8XTq/OgGBoZ0xnsiAyEHtJx5htWRhYnrJmsZmwQ+zNHBGcQpxDXNncOtyfeEp5zXi/8ZXxm/F/FigQ1BAcEdorzC/cKuItsipaLKYk1i0eIL4qcVxSSrJNylFqSjpVRkRmSDZnh8GOb3JV8p4KdAptipFKAkr9ymkqCirjqrlq2mqf1Es1zDUWNc9r2Wv90q7TcdfF6t7QI+sT9e8aRBryG/YapRkrGU+blJjawveO2+ZRFlIW7yzLrDysWa2f2+TbOtiR7AbtTzp4Owo7fnC66pzoYuzK4DrsVuke7WHgSes56HVmZ7C3gvfKrvs+eb5efhJ+S+RO/+MBvoGKQaigweBaSkqIU6h0GDrsTfitiOLd8ZGuURpU3mhU9GzMQGx7XH18WULuntTE+KTQZP+9O/e5pTjtd0i1T7M/4JDudNA9Y+ehgMOhmdFZKdmHc/KPlB2tyW08di+vL3/0+OcTqEKJIq/iYyfvl6yckj3tV3bizOOzq+UK5wMqSi70VKGqtWria+vrPl6SvBxSX3tl7ppKw/7r3Y0cTWHNnbf4bqe0vG21amtpl++42Cl1/+pDg0fDjxO6+Z729hzpc3ouOgAGPw69G/7wGrwRGd81UTuFnkn8CD5VzJO/6i6p/XReLd7w/9Y7wY2EUQHgxCEANt7zONQAkHMRALE9ALDBsacdHQBO6gAhYAqgxQ4AWWj/OT8gOPAkABLgAZJADZjB8WUYHFMWgXrQBSbAGsQOKUOOUDR0AmqGXsMxnzTCBZGKqEeMIhmQBsh45CXkFByleaFKUa/gSMwHfQH9CaOCScU8w/Jgw7FtOBKOgmvHc+Jj8f0ERUIRYZWGTPOUVp22mo6dLoceQZ9E/50hlmGJMZEJYsoishIrSGqkXuYQFizLBVZj1im2w+xS7L0cMZwcnK1c/tw03Nd4PHiRvJf4POGIoE8gV9BWiEnouXCRiKeogOiU2EXxaAkNSUiySypP2hOenfOy/Tta5Crl8xX2KVKUHJU1VPhUIdUxtRb1Ao0QTW0teq0R7RqdGF1dPZxen36DwXXDJqNbxq0m90y7zHrMBy1GLaetFqxXbHF2rPaiDmqOVk5k52SXYtdWtxkPkqe+V+TOcu8BH4Kvvl8Sudn/e6BaUFJwewgh1DmsInxxt1lkWdRctFZMduxovFLCsT0LSa7JD/Zpp7SmWqZNpGdmaB8GmX3ZV46cys3PMzuOLLhfmFccUGJ4SrpM8KxIuVKFTWVUdWntk0ugXvWqTYP7jeCm5Jsnbl+709+21MHbafYg5tHZx8+613pk+nY+Pzpwd4g0TB65NDo7zj2hNqk3Lf+e/sOL2aOfd8y1L5h96fymsFiytPzD/ueF5YVVjbWUX3c3948t/xNh/0sAVWACXEEI2AcKQB3oBKPgB0SC5CAbKAI6BjVALxEAIQFH+WmIq4i3cBxvhUxHtiFXUNqoA6huNDs6EN2IwWO8MY1YRmwY9glOGpeLW8R74R8QZAlFNEiaKJpxWmfax3SGdK30WvR34Cj2EaM94ygcp64TC0iypKfMEXDk2czqy0bD1sweyMHK8ZBzD5c01zh3EY8tL463g28/v4EARuCpYKGQr7Cs8KpIt2iZWJS4sQSXxBfJx1LnpVNkPGU1d0jIscvj5VcV5hQnlF4oP1a5rXpRrUT9kAZV01PLUFtSh1FnUXdYr1W/3uCqYYNRk/FtkzbTTrPH5r0WLyzfWE1bL9is2OHsWR3EHNWdrJ39Xfa6lrjddB/2WPMS3GnhHbPrrE+PH0RW8Y8IqAmcChalhIRcDV0ON40o3D0TpUXdG90Wi4qzii9KmEpUTzqaPL3POKU6lT5tz4FpeD/pPWyR+TDbLKf7qEPuWF7Kcd6Cu4WBxfQnm0v9T5PKHpzdW65y/suFq1WxNVp1mIsDly9cSb7mdV2lkb5p4ub12wfu2LSx3x3vqOmkPtB6hO0afFLzdH+PV5/Oc5EBpsFHQ84vJ18lvmYevTbmNL46UT3pPs0w0/Xh8KzlZ8a5Fwtnv4YsqnxH/OhZLl0N+qW47X8kwADazR1AHKjAM8ANhIOD4Ay4DYbh9S8IWUCxUAU0iKBBGMErvwOJQ9ojzyC/oCxQVWg8mop+g3GCV7sNdgBHxv3EFxLUCZM0J2n1aEfokuj56bsY4hklGSeYzhD9SBKk78wPWcpYk9g82fU4pDjZuWi4EdyrPMu8q/xAAAvfQHmEZUW0RR3EgsT3S5yUvAHH3fOyjDsU5Fzl9ylUKPYorahIqLqr5av3azJruWtX6MzpaesfMXhjpGicbTJupmVeaPHFys76ki2tXZj9Y0dJp2znD64WbrUeeE+K10Nv0V0HfSb9DMmVAchA/6B7FNGQjNCZcKuI+kiWqATqWIxR7OV49oR9ez4mucHrVCWlKpUj7Wg66mByxpfDHplXs9ZznI5UHV0+5ph3+TihgHLiQZFUcc7JuVLXU3fKRM/kwXu///nuC5qVVdVMNYm1UxcdL7XUi17JvbrU4H39QaNM07Hm+Vv2ty/fIbQGtrW2EzsC7jXeRz2we1j6aOKxxBNKd+XT8R7OXvu+g/3Xn78dIAzKvXAYor48Olzz6t7IwOup0YU3q+PQW+wE5h1mEkwuT32aHp15+r75Q/nHw7MRn6w/S81h597MNy9kfvH4KvH1y7eWxbQlo++Y750/Un5q/lxYvrDisUpYbVwj/6L7dW3dfcP/0YGKCpvHB0RrAAB6dH39qygA2HwA1vLW11fK19fXzsPBxggAd8O2vjNtnjWMAJzl2kB9V758/vc3nq1vUP+IY/5dgs2TaFMrfBJtlvCpBP4HGO/lAUuS1G0AAABiZVhJZk1NACoAAAAIAAIBEgADAAAAAQABAACHaQAEAAAAAQAAACYAAAAAAAOShgAHAAAAEgAAAFCgAgAEAAAAAQAAAjWgAwAEAAAAAQAAAmYAAAAAQVNDSUkAAABTY3JlZW5zaG90WnZRzQAAAj1pVFh0WE1MOmNvbS5hZG9iZS54bXAAAAAAADx4OnhtcG1ldGEgeG1sbnM6eD0iYWRvYmU6bnM6bWV0YS8iIHg6eG1wdGs9IlhNUCBDb3JlIDYuMC4wIj4KICAgPHJkZjpSREYgeG1sbnM6cmRmPSJodHRwOi8vd3d3LnczLm9yZy8xOTk5LzAyLzIyLXJkZi1zeW50YXgtbnMjIj4KICAgICAgPHJkZjpEZXNjcmlwdGlvbiByZGY6YWJvdXQ9IiIKICAgICAgICAgICAgeG1sbnM6ZXhpZj0iaHR0cDovL25zLmFkb2JlLmNvbS9leGlmLzEuMC8iCiAgICAgICAgICAgIHhtbG5zOnRpZmY9Imh0dHA6Ly9ucy5hZG9iZS5jb20vdGlmZi8xLjAvIj4KICAgICAgICAgPGV4aWY6UGl4ZWxZRGltZW5zaW9uPjYxNDwvZXhpZjpQaXhlbFlEaW1lbnNpb24+CiAgICAgICAgIDxleGlmOlVzZXJDb21tZW50PlNjcmVlbnNob3Q8L2V4aWY6VXNlckNvbW1lbnQ+CiAgICAgICAgIDxleGlmOlBpeGVsWERpbWVuc2lvbj41NjU8L2V4aWY6UGl4ZWxYRGltZW5zaW9uPgogICAgICAgICA8dGlmZjpPcmllbnRhdGlvbj4xPC90aWZmOk9yaWVudGF0aW9uPgogICAgICA8L3JkZjpEZXNjcmlwdGlvbj4KICAgPC9yZGY6UkRGPgo8L3g6eG1wbWV0YT4K/1cZDQAANLVJREFUeAHt3V2sHdd5HuCRSEmUZJgoaqhxWqpIGjsCLNotUkGoxFwlAlRIRYpKIF0FaBrBvpB7U5FQe+nYV40N/dy4QivDgQtEDl3ZgNHKcCDnqoxR+QdxpLRQYzRFrZYJBPfCjkmKh6RUzmGGHJ6fOftnzcz61noOIOzNPXvPrPV8W8brvV8d3nD69Ol3Gz8ECBAgQIAAgeACNwZfv+UTIECAAAECBDYFhBpvBAIECBAgQKAIAaGmiDHaBAECBAgQICDUeA8QIECAAAECRQgINUWM0SYIECBAgAABocZ7gAABAgQIEChCQKgpYow2QYAAAQIECAg13gMECBAgQIBAEQJCTRFjtAkCBAgQIEBAqPEeIECAAAECBIoQEGqKGKNNECBAgAABAkKN9wABAgQIECBQhIBQU8QYbYIAAQIECBDYn5rgP//Lm5sDB29s7vnY+ebgIX8BeGpf5yNAgAABAgR2Fhjlk5rvvrC/efHR25rXTu7b+aoeJUCAAAECBAgkFhgl1LRr/PGbNzRff/LW5vl7b2/+9BvJPxBKzOB0BAgQIECAQHSB0UJNB9OGm68+fqB5+ckDm0Gne9wtAQIECBAgQCClwOihplvs6yf3b35q881PCjediVsCBAgQIEAgncBkoaZbsr5NJ+GWAAECBAgQSCkweahpF9/v2ygTpxyncxEgQIAAgXoFZgk1HXcXbvRtOhG3BAgQIECAwKoCs4aabtFd30a46UTcEiBAgAABAssKZBFqukW34cbvt+k03BIgQIAAAQLLCGQVatqFd19Jtb/fRt9mmVF6LgECBAgQqFsgu1DTjaMLN76S6kTcEiBAgAABAkMC2YaabtH6Np2EWwIECBAgQGBIIPtQ0y1e36aTcEuAAAECBAjsJBAm1LSL776S0rfZaZQeI0CAAAECdQuECjXdqLpwo2/TibglQIAAAQIEQoaabmz6Np2EWwIECBAgQCB0qOnGp2/TSbglQIAAAQL1ChQRatrxdV9J6dvU+2a2cwIECBCoW6CYUNONsQs3+jadiFsCBAgQIFCHQHGhphubvk0n4ZYAAQIECNQhUGyo6canb9NJuCVAgAABAmULFB9q2vF1X0np25T9ZrY7AgQIEKhboIpQ0424Czf6Np2IWwIECBAgUI5AVaGmG5u+TSfhlgABAgQIlCNQZajpxqdv00m4JUCAAAEC8QWqDjXt+LqvpPRt4r+Z7YAAAQIE6haoPtR04+/Cjb5NJ+KWAAECBAjEEhBqtsxL32YLiD8SIECAAIEgAkLNLoPSt9kFxsMECBAgQCBTAaFmYDDdV1L6NgNIDhEgQIAAgUwEhJoFBtGFG32bBbA8hQABAgQIzCQg1CwBr2+zBJanEiBAgACBiQWEmhXA9W1WQPMSAgQIECAwsoBQsyJw95WUvs2KgF5GgAABAgQSCwg1a4J24UbfZk1ILydAgAABAmsKCDVrAnYv17fpJNwSIECAAIF5BISaxO76NolBnY4AAQIECCwoINQsCLXM07qvpPRtllHzXAIECBAgsJ6AULOe3+Cru3DzlccPbP7FmYNPdpAAAQIECBBYS0CoWYtvsRf/4Bv7m/ZTG2Xixbw8iwABAgQIrCIg1KyituJrur7Nd164acUzeBkBAgQIECCwm4BQs5vMSI+3X0n9wSdv2fzk5rWT+0a6itMSIECAAIH6BISamWaubzMTvMsSIECAQLECQs3Mo9W3mXkALk+AAAECxQgINZmMUt8mk0FYBgECBAiEFRBqMhqdvk1Gw7AUAgQIEAgnINRkODJ9mwyHYkkECBAgkL2AUJPxiPRtMh6OpREgQIBAdgJCTXYj2b4gfZvtJh4hQIAAAQJbBYSarSKZ/lnfJtPBWBYBAgQIZCMg1GQzisUWom+zmJNnESBAgEB9AkJN0Jnr2wQdnGUTIECAwGgCQs1otNOcWN9mGmdXIUCAAIH8BYSa/Ge05wr1bfYk8gQCBAgQqEBAqCloyPo2BQ3TVggQIEBgaQGhZmmy/F+gb5P/jKyQAAECBNILCDXpTbM5o75NNqOwEAIECBCYQEComQB5zkvo28yp79oECBAgMKWAUDOl9ozX0reZEd+lCRAgQGASAaFmEuZ8LqJvk88srIQAAQIE0goINWk9w5xN3ybMqCyUAAECBBYUEGoWhCrxafo2JU7VnggQIFCvgFBT7+yv7lzf5iqFOwQIECAQWECoCTy81EvXt0kt6nwECBAgMKWAUDOldpBr6dsEGZRlEiBAgMB1AkLNdRz+0Ano23QSbgkQIEAgioBQE2VSM61T32YmeJclQIAAgaUFhJqlyep8gb5NnXO3awIECEQSEGoiTSuDterbZDAESyBAgACBHQWEmh1ZPDgkoG8zpOMYAQIECMwlINTMJV/AdfVtChiiLRAgQKAgAaGmoGHOtRV9m7nkXZcAAQIE+gJCTV/D/bUEur7NqadvXus8XkyAAAECBFYREGpWUfOaXQXar6TaUPP8vbc3r53ct+vzHCBAgAABAqkFhJrUos63KdD1bV589Lamve+HAAECBAiMLSDUjC1c+fl/+K0bNz+1efnJA8JN5e8F2ydAgMDYAkLN2MLOvymgb+ONQIAAAQJjCwg1Yws7/1UBfZurFO4QIECAwAgCQs0IqE45LKBvM+zjKAECBAisJiDUrObmVQkE9G0SIDoFAQIECFwVEGquUrgzl4C+zVzyrkuAAIGyBISasuYZdjf6NmFHZ+EECBDIRkCoyWYUFtIK6Nt4HxAgQIDAqgJCzapyXjeqgL7NqLxOToAAgSIFhJoix1rOpvRtypmlnRAgQGBsAaFmbGHnX1tA32ZtQicgQIBAFQJCTRVjLmOT+jZlzNEuCBAgMJaAUDOWrPOOJqBvMxqtExMgQCC0gFATenx1L17fpu752z0BAgS2Cgg1W0X8OZSAvk2ocVksAQIERhUQakbldfKpBPRtppJ2HQIECOQrINTkOxsrW0FA32YFNC8hQIBAIQJCTSGDtI3rBbq+zfWP+hMBAgQIlCwg1JQ83cr31n4l5YcAAQIE6hEQauqZtZ0SIECAAIGiBYSaosdrcwQIECBAoB4BoaaeWdspAQIECBAoWkCoKXq8NkeAAAECBOoREGrqmbWdEiBAgACBogWEmqLHa3MECBAgQKAeAaGmnlnbKQECBAgQKFpAqCl6vDZHgAABAgTqERBq6pm1nRIgQIAAgaIFhJqix2tzqQRefvJA4zcUp9J0HgIECFwT+OZX/1/zR3/442sPrHFPqFkDz0vrEej+LqnXTu6rZ9N2SoAAgREF3vjjnzafPfFnzZc+d7o585fvJLnS/iRncRICFQi0n9R8/clbmz985t3m/uNvNx8+dqmCXdsiAQIE0gr86C82mt/57P9p3vj+mbQnvnw2oSY5qROWLtCFmzf/68XmyPHzzcFD75a+ZfsjQIDA2gLnzlxqXvnKjzb/OfvTNJ/MbF2UULNVxJ8JLCjQfiXV/nP4mHCzIJmnESBQqUDbm/naF/+iGSvMdKxCTSfhlsCKAm2w+eG39vlKakU/LyNAoFyBtjfzn/7DW6N81bSTmlCzk4rHCCwp0H0lpW+zJJynEyBQpMCYvZkhMKFmSMcxAksKdOFG32ZJOE8nQKAIgSl6M0NQQs2QjmMEVhTQt1kRzssIEAgrMFVvZghIqBnScYzAmgL6NmsCejkBAtkLTN2bGQIRaoZ0HCOQQKD7SkrfJgGmUxAgkI3AXL2ZIQChZkjHMQIJBbpwo2+TENWpCBCYXGDu3szQhoWaIR3HCIwgoG8zAqpTEiAwiUAOvZmhjQo1QzqOERhRQN9mRFynJkAgqUBOvZmhjQk1QzqOERhZoPtKSt9mZGinJ0BgJYEcezNDGxFqhnQcIzCRQBdu9G0mAncZAgQGBXLuzQwtXKgZ0nGMwMQC+jYTg7scAQLbBHLvzWxbcO8BoaaH4S6BXAT0bXKZhHUQqEcgSm9maCJCzZCOYwRmFOi+ktK3mXEILk2gAoFovZmhkQg1QzqOEchAoAs3+jYZDMMSCBQkELU3MzQCoWZIxzECGQno22Q0DEshEFwgcm9miF6oGdJxjECGAvo2GQ7FkggEESihNzNELdQM6ThGIFOB7ispfZtMB2RZBDITKKk3M0Qr1AzpOEYgc4Eu3OjbZD4oyyMwk0CJvZkhSqFmSMcxAkEE9G2CDMoyCUwoUGpvZohQqBnScYxAMIGub/P3P7bR3PPxC8FWb7kECKQQKL03M2Qk1AzpOEYgoED7ldQffPKW5rufv7m5//jbzYePXQq4C0smQGBZgVp6M0MuQs2QjmMEAgt0fZsf/P7F5lc/db45eOjdwLuxdAIEdhOorTezm0P7uFAzpOMYgQIEfvCN/U37z+FjF5sjx4WbAkZqCwSuCtTYm7m6+R3uCDU7oHiIQIkC+jYlTtWeahWouTczNHOhZkjHMQKFCejbFDZQ26lOQG9meORCzbCPowSKFNC3KXKsNlWwgN7MYsMVahZz8iwCRQro2xQ5VpsqTEBvZvGBCjWLW3kmgWIF9G2KHa2NBRbQm1l+eELN8mZeQaBIAX2bIsdqUwEF9GZWH5pQs7qdVxIoUkDfpsix2lQAAb2Z9Yck1Kxv6AwEihTQtylyrDaVqYDeTJrBCDVpHJ2FQLEC+jbFjtbGMhBoezO/97k/b978n29nsJr4SxBq4s/QDgiMLqBvMzqxC1QmoDczzsCFmnFcnZVAkQL6NkWO1aYmFOh6M1/74lsTXrWeSwk19czaTgkkE9C3SUbpRBUJ6M2MP2yhZnxjVyBQrIC+TbGjtbGEAnozCTH3OJVQsweQwwQIDAvo2wz7OFqvgN7M9LMXaqY3d0UCRQro2xQ5VptaQUBvZgW0RC8RahJBOg0BAlcE9G28E2oW0JuZd/pCzbz+rk6gWAF9m2JHa2M7COjN7IAyw0NCzQzoLkmgFgF9m1omXe8+9Wbymr1Qk9c8rIZAkQL6NkWOtepN6c3kOX6hJs+5WBWBIgX0bYoca3Wb0pvJd+RCTb6zsTICxQro2xQ72qI3pjeT/3iFmvxnZIUEihTQtylyrEVuSm8mzliFmjizslICRQro2xQ51iI2pTcTb4xCTbyZWTGBIgX0bYoca9hN6c3EHJ1QE3NuVk2gWAF9m2JHG2JjejMhxrTrIoWaXWkcIEBgLgF9m7nk672u3kwZsxdqypijXRAoUkDfpsixZrUpvZmsxrH2YoSatQmdgACBsQX0bcYWrvP8ejPlzV2oKW+mdkSgWAF9m2JHO+nG9GYm5Z70YkLNpNwuRoDAugL6NusK1vt6vZnyZy/UlD9jOyRQpIC+TZFjHWVTejOjsGZ5UqEmy7FYFAECiwro2ywqVefz9GbqmrtQU9e87ZZAsQL6NsWOdqWN6c2sxBb+RUJN+BHaAAECnYC+TSdR763eTL2zb3cu1NQ9f7snUKSAvk2RYx3clN7MIE81B4WaakZtowTqE9C3qWPmejN1zHmRXQo1iyh5DgECoQW6vs3hoxeaIyc2Qu/F4q8J6M1cs3DvioBQ451AgEAVAu1XUqeevrl5/cs3Nfcff7v58LFLVey7xE3qzZQ41TR7EmrSODoLAQJBBLq+zZ/8x3eah5491xw89G6QlVum3oz3wF4CQs1eQo4TIFCkwA+/dWPz/L23N4ePXWyOHD8v3GQ+Zb2ZzAeUyfKEmkwGYRkECMwjoG8zj/uiV9WbWVTK81oBocb7gACB6gX0bfJ7C+jN5DeTCCsSaiJMyRoJEJhEQN9mEubBi+jNDPI4uIeAULMHkMMECNQnoG8zz8z1ZuZxL+mqQk1J07QXAgSSCujbJOXc9WR6M7vSOLCkgFCzJJinEyBQl4C+zXjz1psZz7bWMws1tU7evgkQWEpA32YprsEn680M8ji4hoBQswaelxIgUJ+Avs16M9ebWc/Pq4cFhJphH0cJECCwo4C+zY4suz7Y9mZ+5zP/t2m/cvJDYCwBoWYsWeclQKB4AX2bvUesN7O3kWekExBq0lk6EwEClQro22wffNub+doX32pe+cqPth/0CIGRBISakWCdlgCB+gT0ba7MXG+mvvd+LjsWanKZhHUQIFCMQK19G72ZYt7CYTci1IQdnYUTIJCzQE19G72ZnN+Jda3txtTbffi5jeahZ881Bw+9m/rUzkeAAIFwAl3f5sVHb2va+yX9tL2Z3/u3f97861//H80b3z9T0tbsJajAKJ/UHD52qbnzvrPNt1+4qfne528OSmPZBAgQSCdQWt9Gbybde8OZ0gkk/6SmW1r7Sc0Dn95onnj1THP3Ub+XoHNxS4BA3QJt36b91ObU0zH/D1/bm2k/mfnS5043Z3/6Tt3DtPvsBEYLNd1O23DTfiX1yBfe9pVUh+KWAIGqBbq+zfP33t68dnJfCIu2N/PZE3/WfPb4//IL9EJMrM5Fjh5qOtYPPHhx81MbfZtOxC0BArULROjb6M3U/i6Ntf9ROjVDBPo2QzqOESBQo0CufRu9mRrfjbH3PNknNX0mfZu+hvsECBC4IpBL30ZvxjsyqsAsoabD0rfpJNwSIEDgisCcfRu9Ge/C6AKzhpoOT9+mk3BLgACBKwJT9m30ZrzrShGYvFMzBKdvM6TjGAECNQqM3bfRm6nxXVXunrP4pKbPq2/T13CfAAECVwS6vs13Lv9S0xQ/7VdNft9MCknnyEkgu1DT4ejbdBJuCRAgcEWg/Urqrf+e5n+23/jjv/T7ZryxihNI82/HiCz6NiPiOjUBAgQIEChIIPtQ01m3fZvHXjrb/NLH/JULnYlbAgQIECBA4JpAmFDTLlnf5trg3CNAgAABAgSuFwgVarql69t0Em4JECBAgACBTiBkqOkWr2/TSbglQIAAAQIEQoeabnz6Np2EWwIECBAgUK9AEaGmHZ++Tb1vYjsnQIAAAQKtQDGhphtn17dp/0up9r4fAgQIECBAoA6B4kJNN7Y773uneeLVM81Dz54TbjoUtwQIECBAoGCBYkNNN7Oub3PkxPnuIbcECBAgQIBAgQLFh5p2Zu3XUEdOXNj85Obuo355X4HvY1siQIAAAQLldWqGZqpvM6TjGAECBAgQiC1QxSc1W0ekb7NVxJ8JECBAgEB8gSpDTTc2fZtOwi0BAgQIEIgvUHWoacenbxP/TWwHBAgQIECgFag+1HRvA32bTsItAQIECBCIKSDUbJmbvs0WEH8kQIAAAQJBBISaXQalb7MLjIcJECBAgECmAkLNwGD0bQZwHCJAgAABApkJCDULDETfZgEkTyFAgAABAjMLCDVLDEDfZgksTyVAgAABAhMLCDUrgOvbrIDmJQQIECBAYGQBoWZFYH2bFeG8jAABAgQIjCQg1KwJq2+zJqCXEyBAgACBRAJCTSJIfZtEkE5DgAABAgRWFBBqVoTb7WX6NrvJeJwAAQIECIwrINSM4KtvMwKqUxIgQIAAgT0EhJo9gNY5rG+zjp7XEiBAgACB5QSEmuW8Vnq2vs1KbF5EgAABAgSWEhBqluJa78n6Nuv5eTUBAgQIEBgSEGqGdEY4pm8zAqpTEiBAgACBywJCzUxvA32bmeBdlgABAgSKFRBqZh6tvs3MA3B5AgQIEChGQKjJZJT6NpkMwjIIECBAIKyAUJPR6PRtMhqGpRAgQIBAOAGhJsOR6dtkOBRLIkCAAIHsBYSajEekb5PxcCyNAAECBLITEGqyG8n2BenbbDfxCAECBAgQ2Cog1GwVyfTP+jaZDsayCBAgQCAbAaEmm1EsthB9m8WcPIsAAQIE6hMQaoLOXN8m6OAsmwABAgRGExBqRqOd5sT6NtM4uwoBAgQI5C8g1OQ/oz1XqG+zJ5EnECBAgEAFAkJNQUPWtylomLZCgAABAksLCDVLk+X/An2b/GdkhQQIECCQXkCoSW+azRn1bbIZhYUQIECAwAQCQs0EyHNeQt9mTn3XJkCAAIEpBYSaKbVnvJa+zYz4Lk2AAAECkwgINZMw53MRfZt8ZmElBAgQIJBWQKhJ6xnmbPo2YUZloQQIECCwoIBQsyBUiU/TtylxqvZEgACBegWEmnpnf3Xn+jZXKdwhQIAAgcACQk3g4aVeur5NalHnI0CAAIEpBYSaKbWDXEvfJsigLJMAAQIErhMQaq7j8IdOQN+mk3BLgAABAlEEhJook5ppnfo2M8G7LAECBAgsLSDULE1W5wv0beqcu10TIEAgkoBQE2laGaxV3yaDIVgCAQIECOwoINTsyOLBIQF9myEdxwgQIEBgLgGhZi75Aq6rb1PAEG2BAAECBQkINQUNc66t6NvMJe+6BAgQINAXEGr6Gu6vJaBvsxafFxMgQIDAmgJCzZqAXn69gL7N9R7+RIAAAQLTCQg101lXdSV9m6rGbbMECBDIQkCoyWIM5S5C36bc2doZAQIEchMQanKbSKHrafs2j79yrjly4nyhO7QtAgQIEJhbQKiZewIVXf+W975zOdRcaJ549Uxz99GNinZuqwQIECAwhYBQM4Wya1wn0PVtHn/lbNPe90OAAAECBFIICDUpFJ1jJYE7PvTO5qc2Dz17TrhZSdCLCBAgQKAvINT0NdyfRUDfZhZ2FyVAgEBxAkJNcSONuSF9m5hzs2oCBAjkJCDU5DQNa9n8Gurh5zYu/5dS+jbeDgQIECCwnIBQs5yXZ08koG8zEbTLECBAoCABoaagYZa4FX2bEqdqTwQIEBhHQKgZx9VZEwro2yTEdCoCBAgULCDUFDzc0rbm99uUNlH7IUCAQFoBoSatp7NNIKBvMwGySxAgQCCggFATcGiWfEVA38Y7gQABAgT6AkJNX8P9cAL6NuFGZsEECBAYTUCoGY3WiacU0LeZUtu1CBAgkKeAUJPnXKxqRQF9mxXhvIwAAQIFCOwvYA+2QGCbQNu3+eA/PLftcQ8QIECAQLkCPqkpd7bV76zt2/ghQIAAgXoEhJp6Zm2nBAgQIECgaAGhpujx2hwBAgQIEKhHQKipZ9Z2SoAAAQIEihYQaooer80RIECAAIF6BISaemZtpwQIECBAoGgBoabo8docAQIECBCoR0CoqWfWdkqAAAECBIoWEGqKHq/NESBAgACBegSEmnpmbacECBAgQKBoAaGm6PHaXCqBX/nU2037l2b6IUCAAIG0Akce/GvNL/3ye5Oc1N/9lITRSUoXuOfjF5sPPnip+S9P39T8yZdvLn279keAAIHRBe76u7c3/+if3dHc9ZH3JLuWUJOM0olKF2g/qXn4uY3ml09cEG5KH7b9ESAwmsD7fubm5qOf+Jnm791/MPk1hJrkpE5YukAXbv72P7jUnHrmQPPjN28ofcv2R4AAgbUFbnvPjc0Dj7xv859bb9+39vl2OoFQs5OKxwgsIHD42KXm8LEzzesn9wk3C3h5CgEC9Qq0vZmPfuL9zVhhppMVajoJtwRWFGjDzZ33nfWV1Ip+XkaAQLkCY/RmhrSEmiEdxwgsKNB9JaVvsyCYpxEgULTAmL2ZITihZkjHMQJLCnThRt9mSThPJ0CgCIEpejNDUELNkI5jBFYU0LdZEc7LCBAIKzBVb2YISKgZ0nGMwJoC+jZrAno5AQLZC0zdmxkCEWqGdBwjkECg+0pK3yYBplMQIJCNQNub+c1/9TeT/vK8dTcn1Kwr6PUEFhTowo2+zYJgnkaAQJYCc/dmhlCEmiEdxwiMIKBvMwKqUxIgMInAr/6Tv97843/+N0b/fTOrbkaoWVXO6wisKaBvsyaglxMgMJlATr2ZoU0LNUM6jhEYWaD7SkrfZmRopydAYCWBHHszQxsRaoZ0HCMwkUAXbvRtJgJ3GQIEBgVy7s0MLVyoGdJxjMDEAvo2E4O7HAEC2wRy781sW3DvAaGmh+EugVwE9G1ymYR1EKhHIEpvZmgiQs2QjmMEZhTovpLSt5lxCC5NoAKBaL2ZoZEINUM6jhHIQKALN/o2GQzDEggUJBC1NzM0AqFmSMcxAn8l8OM3b2jacDHnj77NnPquTaAsgci9maFJ3Dh00DECBK4IPH/v7c2pp2/OgqMNN4+9dLa5++hGFuuxCAIE4gi0vZmnnvm55p/+i5/N9hforaMp1Kyj57VVCbShpg03r53cN/u+u6+knnj1jHAz+zQsgED+Am1vpg0zTz3981n9XU2p5YSa1KLOV7RA+zXU15+8dTPcvPXf5v/Xpws3Dz17bvavx4oevM0RCCrQ9mZ+7TfuaH7r3/9C0WGmG49OTSfhlsASAm24+cIDtzWHj11sjhw/P3ug0LdZYnieSqASgVJ7M0Pjm///ag6tzjECmQu8fnL/5qc27VdT539yw+yr1beZfQQWQGB2gdJ7M0PAQs2QjmMEFhRoQ037yY2+zYJgnkaAQHKBWnozQ3BCzZCOYwSWENC3WQLLUwkQSCZQW29mCE6nZkjHMQIrCOjbrIDmJQQIrCRQY29mCMonNUM6jhFYQ0DfZg08LyVAYFCg5t7MEIxQM6TjGIEEAvo2CRCdggCBTQG9meE3glAz7OMogSQC+jZJGJ2EQLUCejOLjV6nZjEnzyKQREDfJgmjkxCoSkBvZvFxCzWLW3kmgWQCbd+m/efIiY3mno9faG557/x/Wead951tvv3CTc33Pp/H33GVDNuJCAQVaHszH/3E+5tDf+fWoDuYftm+fpre3BUJXBXIrW/zwKc3Gn+f1NXxuENgFoF+b0agWW4EQs1yXp5NILlArn2bR77w9ux//UNybCckkLFA15v57d/9xSr+nqYxRuHrpzFUnZPACgK59W0+8ODFpv3n9ct/K/mpZw407fr8ECAwjoDeTBpXoSaNo7MQSCagb5OM0okIZC+gN5N2RL5+SuvpbASSCejbJKN0IgLZCejNjDMSoWYcV2clkERA3yYJo5MQyEZAb2bcUfj6aVxfZyeQREDfJgmjkxCYVUBvZnx+oWZ8Y1cgkExA3yYZpRMRmExAb2Yy6sbXT9NZuxKBZAL6NskonYjAaAJ6M6PR7npioWZXGgcI5C2gb5P3fKyuXgG9mflm7+un+exdmUASAX2bJIxOQiCJgN5MEsaVTyLUrEznhQTyEtC3yWseVlOXgN5MHvP29VMec7AKAskE9G2SUToRgT0F9Gb2JJr0CULNpNwuRmAaAX2baZxdpV4BvZk8Z+/rpzznYlUEkgjo2yRhdBIC1wnozVzHkdUfhJqsxmExBMYR0LcZx9VZ6xLQm8l/3r5+yn9GVkggmYC+TTJKJ6pIQG8mzrCFmjizslICSQT0bZIwOkkFAnoz8Ybs66d4M7NiAkkE9G2SMDpJoQJ6MzEHK9TEnJtVE0gmoG+TjNKJChDQm4k9RF8/xZ6f1RNIJqBvk4zSiQIK6M0EHNoOSxZqdkDxEIFaBfRtap18vfvWmylr9r5+KmuedkMgiYC+TRJGJ8lcQG8m8wGtsDyhZgU0LyFQi4C+TS2TrmufbW/mN5/6W037lZOfsgR8/VTWPO2GwCgC+jajsDrpxAL93oxAMzH+RJcTaiaCdhkC0QX0baJPsN71t72Zj37i/c1v/+4vNnd95D31QlSwc18/VTBkWySQUkDfJqWmc40toDcztnBe5xdq8pqH1RAII9Dv2xw+eqE5eOjdWdd++Nil5s77zjbffuGm5nuf15WYdRgZXFxvJoMhzLAEXz/NgO6SBEoSaPs2Lz56W/PayX2zb6sNVg98eqN54tUzzd1HN2ZfjwVML6A3M715TlcUanKahrUQCCrQ79v872/N/z8rbbh5+LmN5rGXzs7+CVLQkYZbtt5MuJGNsuD5/9dnlG05KQECcwi04eZLlz+1efnJA017f+6fO+97Z/NTm4eePSfczD2MEa/f9mY+8+JdzQOPvG/Eqzh1BAGdmghTskYCwQRy7du8/uX9zamnbwmmabm7CejN7CZT7+M+qal39nZOYHSB3Po2R05c0LcZferjX0BvZnzjqFcQaqJOzroJBBHQtwkyqADL1JsJMKSZlyjUzDwAlydQi4C+TS2THmefejPjuJZ2Vp2a0iZqPwQyF9C3yXxAmS1PbyazgWS+HJ/UZD4gyyNQqoC+TamTTbMvvZk0jrWdRaipbeL2SyAjAX2bjIaRyVL0ZjIZRNBlCDVBB2fZBEoS0LcpaZqr70VvZnU7r7wioFPjnUCAQDYC+jbZjGLShejNTMpd9MV8UlP0eG2OQEwBfZuYc1t21Xozy4p5/l4CQs1eQo4TIDCLgL7NLOyTXFRvZhLmKi8i1FQ5dpsmEEdA3ybOrBZZqd7MIkqes6qATs2qcl5HgMCkAvo2k3Inv5jeTHJSJ9xBwCc1O6B4iACBfAX0bfKdzU4r05vZScVjYwkINWPJOi8BAqMJ6NuMRpvsxHozySidaAkBoWYJLE8lQCAvAX2bvObRrebXfuOO5jMv3tU88Mj7uofcEphEQKdmEmYXIUBgTAF9mzF1Fz+33sziVp45joBPasZxdVYCBGYQ0LeZAf3yJQ/9wi3NU8/8XPPU0z/ftB0aPwTmEhBq5pJ3XQIERhHQtxmFdceTdr2Z3/p3H2zu+sh7dnyOBwlMKSDUTKntWgQITCagbzMutd7MuL7OvpqATs1qbl5FgEAQAX2btIPSm0nr6WxpBXxSk9bT2QgQyFRA32a9wejNrOfn1dMICDXTOLsKAQIZCOjbLD8EvZnlzbxiPgGhZj57VyZAYCYBfZvF4PVmFnPyrHwEdGrymYWVECAwsYC+zc7gejM7u3g0fwGf1OQ/IyskQGBkAX2bK8B6MyO/0Zx+dAGhZnRiFyBAIIJAzX0bvZkI71BrXETA10+LKHkOAQLVCHR9m8PHLjZHjp9vDh56d9a933nfO80Tr55pXj+5rzn1zIHka2l7M+3f0XTr7fuSn9sJCUwtcMPp06fn/Td26h27HoEVBP7Nz/ptqSuwFfGSIyc2msNHL8weblrM8z+5sWlD1x0furS27RvfP3P5rzS4yV9rsLakE+QkINTkNA1ryVZAqMl2NJMsrP205v7jbzcfPrZ+mJhkwS5CoFIBnZpKB2/bBAgsLpBb32bxlXsmgboEhJq65m23BAisIdD1bV5+8sDm10BrnMpLCRAYQUCoGQHVKQkQKFug/f02z997e9P+p+Bt0PFDgEAeAkJNHnOwCgIEAgrk9PttAvJZMoHkAkJNclInJECgJoF+3+ZPv+G3ZNQ0e3vNT0CoyW8mVkSAQECBNtx89fEDjb5NwOFZcjECQk0xo7QRAgRyEOj6Nt/8pDJxDvOwhroEhJq65m23BAhMJPDdF/Y3Lz56W/Pa5d8E7IcAgWkEhJppnF2FAIEKBfRtKhy6Lc8qINTMyu/iBAjUIKBvU8OU7TEHAaEmhylYAwECVQjo21QxZpucUUComRHfpQkQqFNA36bOudv1+AJCzfjGrkCAAIFtAvo220g8QGBtAaFmbUInIECAwOoC+jar23klga0CQs1WEX8mQIDADAL6NjOgu2RxAkJNcSO1IQIEIgvo20SenrXPLSDUzD0B1ydAgMAWAX2bLSD+SGBBAaFmQShPI0CAwNQC+jZTi7tedAGhJvoErZ8AgeIF9G2KH7ENJhIQahJBOg0BAgTGFmj7NqeeuXnsyzg/gbACQk3Y0Vk4AQIECBAg0BcQavoa7hMgQIAAAQJhBYSasKOzcAIECBAgQKAvINT0NdwnQIAAAQIEwgoINWFHZ+EECBAgQIBAX0Co6Wu4T4AAAQIECIQVEGrCjs7CCRAgQIAAgb6AUNPXcJ8AAQIECBAIKyDUhB2dhRMgQIAAAQJ9AaGmr+E+AQIECBAgEFZAqAk7OgsnQIAAAQIE+gJCTV/DfQIECBAgQCCsgFATdnQWToAAAQIECPQFhJq+hvsECBAgQIBAWAGhJuzoLJwAAQIECBDoCwg1fQ33CRAgQIAAgbACQk3Y0Vk4AQIECBAg0BcQavoa7hMgQIAAAQJhBYSasKOzcAIECBAgQKAvINT0NdwnQIAAAQIEwgoINWFHZ+EECBAgQIBAX0Co6Wu4T4AAAQIECIQVEGrCjs7CCRAgQIAAgb6AUNPXcJ8AAQIECBAIKyDUhB2dhRMgQIAAAQJ9AaGmr+E+AQIECBAgEFZAqAk7OgsnQIAAAQIE+gJCTV/DfQIECBAgQCCsgFATdnQWToAAAQIECPQFhJq+hvsECBAgQIBAWAGhJuzoLJwAAQIECBDoCwg1fQ33CRAgQIAAgbACQk3Y0Vk4AQIECBAg0BcQavoa7hMgQIAAAQJhBYSasKOzcAIECBAgQKAvINT0NdwnQIAAAQIEwgoINWFHZ+EECBAgQIBAX0Co6Wu4T4AAAQIECIQVEGrCjs7CCRAgQIAAgb6AUNPXcJ8AAQIECBAIKyDUhB2dhRMgQIAAAQJ9AaGmr+E+AQIECBAgEFZAqAk7OgsnQIAAAQIE+gJCTV/DfQIECBAgQCCsgFATdnQWToAAAQIECPQFhJq+hvsECBAgQIBAWAGhJuzoLJwAAQIECBDoCwg1fQ33CRAgQIAAgbACQk3Y0Vk4AQIECBAg0BcQavoa7hMgQIAAAQJhBYSasKOzcAIECBAgQKAvINT0NdwnQIAAAQIEwgoINWFHZ+EECBAgQIBAX0Co6Wu4T4AAAQIECIQVEGrCjs7CCRAgQIAAgb6AUNPXcJ8AAQIECBAIKyDUhB2dhRMgQIAAAQJ9AaGmr+E+AQIECBAgEFZAqAk7OgsnQIAAAQIE+gJCTV/DfQIECBAgQCCsgFATdnQWToAAAQIECPQFhJq+hvsECBAgQIBAWAGhJuzoLJwAAQIECBDoCwg1fQ33CRAgQIAAgbACQk3Y0Vk4AQIECBAg0BcQavoa7hMgQIAAAQJhBYSasKOzcAIECBAgQKAvINT0NdwnQIAAAQIEwgoINWFHZ+EECBAgQIBAX0Co6Wu4T4AAAQIECIQVEGrCjs7CCRAgQIAAgb6AUNPXcJ8AAQIECBAIKyDUhB2dhRMgQIAAAQJ9AaGmr+E+AQIECBAgEFZAqAk7OgsnQIAAAQIE+gJCTV/DfQIECBAgQCCsgFATdnQWToAAAQIECPQFhJq+hvsECBAgQIBAWAGhJuzoLJwAAQIECBDoCwg1fQ33CRAgQIAAgbACQk3Y0Vk4AQIECBAg0BcQavoa7hMgQIAAAQJhBYSasKOzcAIECBAgQKAvINT0NdwnQIAAAQIEwgoINWFHZ+EECBAgQIBAX0Co6Wu4T4AAAQIECIQVEGrCjs7CCRAgQIAAgb6AUNPXcJ8AAQIECBAIKyDUhB2dhRMgQIAAAQJ9AaGmr+E+AQIECBAgEFZAqAk7OgsnQIAAAQIE+gJCTV/DfQIECBAgQCCsgFATdnQWPqXAwUPvTnk51yJAgACBFQSEmhXQvKQ+gSdePdMcOXG+ueW9wk1907djAgSiCAg1USZlnbMLHDlxoXn8lbPN3Uc3Zl+LBRAgQIDAdgGhZruJRwjsKtB+DfXwcxtN+8nNHR+6tOvzHCBAgACB6QWEmunNXbEAgTbcPP7KueahZ881+jYFDNQWCBAoQkCoKWKMNjGXwOFjlzY/tdG3mWsCrkuAAIFrAkLNNQv3CKwsoG+zMp0XEiBAIJmAUJOM0olqF9C3qf0dYP8ECMwtINTMPQHXL05A36a4kdoQAQJBBISaIIOyzHgC+jbxZmbFBAjEFhBqYs/P6gMI6NsEGJIlEiBQhIBQU8QYbSJ3AX2b3CdkfQQIlCAg1JQwRXsII6BvE2ZUFkqAQEABoSbg0Cw5voC+TfwZ2gEBAvkJCDX5zcSKKhLQt6lo2LZKgMDoAkLN6MQuQGBYQN9m2MdRAgQILCog1Cwq5XkERhbQtxkZ2OkJECheQKgpfsQ2GE1A3ybaxKyXAIFcBISaXCZhHQS2COjbbAHxRwIECOwhINTsAeQwgTkF9G3m1HdtAgSiCQg10SZmvVUK6NtUOXabJkBgSQGhZkkwTycwp4C+zZz6rk2AQO4CQk3uE7I+AjsI6NvsgOIhAgSqFxBqqn8LAIgqoG8TdXLWTYDAWAJCzViyzktgIgF9m4mgXYYAgewFhJrsR2SBBBYT0LdZzMmzCBAoV0CoKXe2dlapgL5NpYO3bQIEGqHGm4BAgQL9vs2d910qcIe2RIAAge0CQs12E48QKEagDTePvXSueejZc0173w8BAgRKFhBqSp6uvRH4K4F+30a48bYgQKBUAaGm1MnaF4EdBNq+zWMvnW3uPrqxw1EPESBAILaAUBN7flZPYGkBfZulybyAAIEgAkJNkEFZJoHUAvo2qUWdjwCBuQWEmrkn4PoEZhbQt5l5AC5PgEAyAaEmGaUTEYgtoG8Te35WT4BA4/fUeBMQIHBNQN/mmoV7BAjEE/BJTbyZWTGB0QX0bUYndgECBEYQEGpGQHVKAqUI6NuUMkn7IFCHgFBTx5ztksBaAvo2a/F5MQECEwkINRNBuwyB6AL6NtEnaP0EyhcQasqfsR0SSCqgb5OU08kIEEgoINQkxHQqAjUJ6NvUNG17JRBDQKiJMSerJJCtgL5NtqOxMALVCQg11Y3chgmkF9C3SW/qjAQILC8g1Cxv5hUECOwioG+zC4yHCRCYREComYTZRQjUJaBvU9e87ZZALgJCTS6TsA4CBQro2xQ4VFsikLGAUJPxcCyNQAkC+jYlTNEeCMQQEGpizMkqCYQX0LcJP0IbIJC9gFCT/YgskEBZAvo2Zc3TbgjkJCDU5DQNayFQkYC+TUXDtlUCEwkINRNBuwwBAtsF9G22m3iEAIHVBYSa1e28kgCBRAL6NokgnYZA5QJCTeVvANsnkJOAvk1O07AWAvEEhJp4M7NiAsUL6NsUP2IbJDCKgFAzCquTEiCwroC+zbqCXk+gPgGhpr6Z2zGBUAL6NqHGZbEEZhUQambld3ECBBYV0LdZVMrzCNQrINTUO3s7JxBSQN8m5NgsmsAkAkLNJMwuQoBASgF9m5SazkWgHAGhppxZ2gmB6gT0baobuQ0TGBQQagZ5HCRAIIKAvk2EKVkjgfEFhJrxjV2BAIGJBPRtJoJ2GQKZCgg1mQ7GsggQWE1A32Y1N68iUIKAUFPCFO2BAIFtAvo220g8QKB4AaGm+BHbIIG6BfRt6p6/3dclINTUNW+7JVCtgL5NtaO38YoEhJqKhm2rBGoX0Lep/R1g/6ULCDWlT9j+CBDYJqBvs43EAwSKEBBqihijTRAgsIqAvs0qal5DIF8BoSbf2VgZAQITCejbTATtMgRGFhBqRgZ2egIEYgjo28SYk1USGBIQaoZ0HCNAoDoBfZvqRm7DBQkINQUN01YIEEgnoG+TztKZCEwlINRMJe06BAiEFNC3CTk2i65UQKipdPC2TYDA4gL6NotbeSaBOQWEmjn1XZsAgVAC+jahxmWxFQoINRUO3ZYJEFhPQN9mPT+vJjCWgFAzlqzzEiBQvIC+TfEjtsFgAkJNsIFZLgECeQno2+Q1D6upW0CoqXv+dk+AQCIBfZtEkE5DYA0BoWYNPC8lQIDAVgF9m60i/kxgOgGhZjprVyJAoCIBfZuKhm2r2QgINdmMwkIIEChNQN+mtInaT+4CQk3uE7I+AgTCC+jbhB+hDQQREGqCDMoyCRCIL6BvE3+GdpC3gFCT93ysjgCBAgX0bQocqi1lISDUZDEGiyBAoDYBfZvaJm6/UwgINVMouwYBAgR2EdC32QXGwwRWEBBqVkDzEgIECKQW6Po2v/Kpt5s26PghQGB5AaFmeTOvIECAwGgC93z8YvPYS2ebu49ujHYNJyZQqoBQU+pk7YsAgbAC/b7NBx68EHYfFk5gagGhZmpx1yNAgMCCAm24eeQL55uHnj3nK6kFzTytboEbTp8+7cvbut8Ddk+AQBCB77ywvzn/kxua9j8J90OAwHYBoWa7iUcIECBAgACBgAK+fgo4NEsmQIAAAQIEtgsINdtNPEKAAAECBAgEFBBqAg7NkgkQIECAAIHtAkLNdhOPECBAgAABAgEFhJqAQ7NkAgQIECBAYLuAULPdxCMECBAgQIBAQAGhJuDQLJkAAQIECBDYLvD/Ae/wLyFP0FkRAAAAAElFTkSuQmCC;" vertex="1" parent="1">
          <mxGeometry x="550" y="226.12" width="55" height="59.77" as="geometry" />
        </mxCell>
        <mxCell id="el7I0GfivZ1_OaW4JBx--9" style="edgeStyle=orthogonalEdgeStyle;rounded=0;orthogonalLoop=1;jettySize=auto;html=1;" edge="1" parent="1" source="el7I0GfivZ1_OaW4JBx--3" target="el7I0GfivZ1_OaW4JBx--2">
          <mxGeometry relative="1" as="geometry" />
        </mxCell>
        <mxCell id="el7I0GfivZ1_OaW4JBx--3" value="" style="image;sketch=0;aspect=fixed;html=1;points=[];align=center;fontSize=12;image=img/lib/mscae/Azure_Pipelines.svg;" vertex="1" parent="1">
          <mxGeometry x="364.00000000000006" y="470" width="50" height="50" as="geometry" />
        </mxCell>
        <mxCell id="el7I0GfivZ1_OaW4JBx--4" value="" style="shape=image;verticalLabelPosition=bottom;labelBackgroundColor=default;verticalAlign=top;aspect=fixed;imageAspect=0;image=data:image/png,iVBORw0KGgoAAAANSUhEUgAAAc8AAACmCAYAAAC89AQNAAAYfWlDQ1BJQ0MgUHJvZmlsZQAAWIWVeQk4lV3X/77PfI75HPM8z2Se53meZxKO6ZjiGEOJpAwlEqJUkrFSKVQi0qCUoYckiWSoFCoqQ77bUM/zPu//+n/Xt8+17/07a6+91t5r7WndNwBcI76RkWEIRgDCI2KoDqYG/G7uHvzYaQDBP1YAAJsvOTpS387OCsbgd/mfaWkQ5oXTc5kNWf9d//9NRP+AaDIAkBeM/fyjyeEwvgsA6hQ5khoDAGaDLhQfE7mB98OYmQp3EMYFGzhoC1dvYL8t3LLJ4+RgCONeAHC0vr7UIADoR2A6fxw5CJZDvwrXESP8KREAsMAjx+iQg339AeCyg3mkw8N3b+BkGIvD/JEwroCxmt8/ZAb9h3y/P/J9fYP+4K1xbSacESU6Msx3z//RNP97Cg+L/a1DFM60wVQzh43xwzYcCt1tuYFpYTwb4Wdju2FrGP+g+G/ZHQAEITjWzHmLH8FNjjaE7bfhc4Scv6+RJYy5YWwSEWZjtU33C6SYmMMYthkigRJj7gRjdhgfDog2dtzmOUvd7bCtC9EYSDXU36Y/8qVu6t3QNRob6qy/Lf9LcID5tnwkfWKwkyuMCTAWjqO42MCYHsay0aGOlts8WonBhja/eaixDhv9F4axQ0CEqcGWfGRcINXEYZs/Kzz693iRZ4Mp5jbb+FpMsJPZln2QnWTfzf7DY0H2BkToO/+WExDtZvV7LP4BRsZbY0fOBEQ4O27L+REZY+Cw1RZFiAyz2+ZHCQaEmW7QBWGsFB3nuN0W5RIDT84t+ajAyBg7p61+ohJDfC3stvqDOgasgCEwAvwgFs5+YDcIAZRns02z8L+tGhPgC6ggCAQAmW3K7xaumzUR8NMRJIJPMAoA0X/aGWzWBoA4mL72h7r1lAGBm7Vxmy1CwRSMw4ElCIP/x262ivijzQW8gymU/9LuC2cy3N8wOG/U/7/pv6l/U/RhitU2Jfa3Rn6G35wYY4wRxgxjgpFAcaJ0UJooK/ipB2cFlBpK/fc4/uZHT6H70G/RA+gx9MtdlDTqv3ppDcZg+SbbtvD7py1QorBMZZQBShuWDktGsaI4gQxKCdajj9KFNSvDVMPtfm9Yhf9fsv9jBP/wxjYfXg6PwLPh9fDi/25JL0mv/EfKhq3/aZ+tvvr9sbfhn5p/6zf8h/X94dLy35zIw8gG5ENkO7IL2YJsAvzINmQzsht5ZwP/mV3vNmfXb20Om/0JheVQ/kuf77bODUtGy9XJvZdb3aqLCUiI2Vh4hrsj91ApQcEx/Prw6RDAbx5BlpXmV5BTUARg46zZ2r6+OmyeIRBrz9808kEAVOcBwC//TQv/CsAVeO3zW/9NE/GGlx8GgOopciw1bouG2nig4V2CAV5pHIAXCAFxeDwKQAVoAj1gDCyALXAC7sAbtnIwPM+pIB4kg1SQAbLBMXAClIAz4DyoBpfANdAEWkA7eACegF4wAF7Bs2cSfATzYAmsQBCEheggEsQB8UEikBSkAKlBOpAxZAU5QO6QDxQERUCxUDJ0AMqG8qES6BxUA12FbkLtUBfUB72ExqH30BdoGYFE0CKYETwIUcQOhBpCH2GJcELsRAQhohCJiHTEUUQxohxxEdGIaEc8QQwgxhAfEYtIgKRBsiIFkDJINaQh0hbpgQxEUpH7kFnIQmQ58jLyFuzn58gx5CzyJwqDIqH4UTLwDDZDOaPIqCjUPlQOqgRVjWpEdaKeo8ZR86hfaDo0N1oKrYE2R7uhg9Dx6Ax0IboSfQN9H15Lk+glDAbDihHDqMJr0R0TgknC5GBOY+oxdzF9mAnMIhaL5cBKYbWxtlhfbAw2A3sSexHbhu3HTmJ/4GhwfDgFnAnOAxeBS8MV4mpxrbh+3DRuBc+IF8Fr4G3x/vg9+Fx8Bf4Wvgc/iV8hMBHECNoEJ0IIIZVQTLhMuE8YIXyloaERpFGnsaeh0OynKaa5QvOIZpzmJy2RVpLWkNaLNpb2KG0V7V3al7Rf6ejoROn06DzoYuiO0tXQ3aMbpftBT6KXpTen96dPoS+lb6Tvp//MgGcQYdBn8GZIZChkaGDoYZhlxDOKMhoy+jLuYyxlvMn4gnGRicQkz2TLFM6Uw1TL1MU0Q8QSRYnGRH9iOvE88R5xgoQkCZEMSWTSAVIF6T5pkhnDLMZszhzCnM18ifkZ8zwLkUWJxYUlgaWU5Q7LGCuSVZTVnDWMNZf1Gusg6zIbD5s+WwBbJttltn627+xc7HrsAexZ7PXsA+zLHPwcxhyhHHkcTRyvOVGckpz2nPGcZZz3OWe5mLk0uchcWVzXuIa5EdyS3A7cSdznubu5F3l4eUx5InlO8tzjmeVl5dXjDeEt4G3lfc9H4tPho/AV8LXxfeBn4dfnD+Mv5u/knxfgFjATiBU4J/BMYEVQTNBZME2wXvC1EEFITShQqECoQ2hemE/YWjhZuE54WAQvoiYSLFIk8lDku6iYqKvoIdEm0RkxdjFzsUSxOrERcTpxXfEo8XLxvyQwEmoSoRKnJXolEZLKksGSpZI9UggpFSmK1GmpPmm0tLp0hHS59AsZWhl9mTiZOplxWVZZK9k02SbZzzuEd3jsyNvxcMcvOWW5MLkKuVfyRHkL+TT5W/JfFCQVyAqlCn8p0imaKKYoNisuKEkpBSiVKQ0pk5StlQ8pdyivqaiqUFUuq7xXFVb1UT2l+kKNWc1OLUftkTpa3UA9Rb1F/aeGikaMxjWNOU0ZzVDNWs0ZLTGtAK0KrQltQW1f7XPaYzr8Oj46Z3XGdAV0fXXLdd/qCen561XqTetL6IfoX9T/bCBnQDW4YfDdUMNwr+FdI6SRqVGW0TNjorGzcYnxqImgSZBJncm8qbJpkuldM7SZpVme2QtzHnOyeY35vIWqxV6LTktaS0fLEsu3VpJWVKtb1ghrC+vj1iM2IjYRNk22wNbc9rjtazsxuyi72/YYezv7UvspB3mHZIeHjiTHXY61jktOBk65Tq+cxZ1jnTtcGFy8XGpcvrsauea7jrntcNvr9sSd053i3uyB9XDxqPRY9DT2POE56aXsleE1uFNsZ8LOLm9O7zDvO7sYdvnuavBB+7j61Pqs+tr6lvsu+pn7nfKbJxuSi8gf/fX8C/zfB2gH5AdMB2oH5gfOBGkHHQ96H6wbXBg8SzGklFAWQsxCzoR8D7UNrQpdD3MNqw/HhfuE34wgRoRGdO7m3Z2wuy9SKjIjcixKI+pE1DzVkloZDUXvjG6OYYYv9d2x4rEHY8fjdOJK437Eu8Q3JDAlRCR075Hck7lnOtEk8UISKomc1JEskJyaPL5Xf++5fdA+v30dKUIp6SmT+033V6cSUkNTn6bJpeWnfTvgeuBWOk/6/vSJg6YH6zLoM6gZLw5pHjpzGHWYcvhZpmLmycxfWf5Zj7PlsguzV3PIOY+PyB8pPrJ+NPDos1yV3LJjmGMRxwbzdPOq85nyE/MnjlsfbyzgL8gq+HZi14muQqXCM0WEotiisWKr4uaTwiePnVwtCS4ZKDUorT/FfSrz1PfT/qf7y/TKLp/hOZN9Zvks5ezQOdNzjeWi5YXnMefjzk9VuFQ8vKB2oaaSszK7cq0qomqs2qG6s0a1pqaWuza3DlEXW/f+otfF3ktGl5ovy1w+V89an30FXIm98uGqz9XBa5bXOhrUGi5fF7l+6gbpRlYj1Lincb4puGms2b2576bFzY5bmrdu3Ja9XdUi0FJ6h+VObiuhNb11vS2xbfFu5N3Z9qD2iY5dHa/uud37q9O+89l9y/uPHpg8uPdQ/2HbI+1HLV0aXTcfqz1ueqLypLFbufvGU+WnN56pPGvsUe1p7lXvvdWn1dfar9vf/tzo+YO/zP96MmAz0DfoPDj0wuvF2JD/0MzLsJcLw3HDK6/2j6BHsl4zvi4c5R4tfyPxpn5MZezOuNF491vHt68myBMf30W/W51Mn6KbKpzmm66ZUZhpeW/yvveD54fJj5EfV2YzPjF9OvVZ/PP1Ob257nm3+ckF6sL6l5yvHF+rvil961i0WxxdCl9a+Z71g+NH9U+1nw+XXZenV+JXsavFaxJrt35Z/hpZD19fj/Sl+m5eBZBwRgQGAvClCgA6dwBIcNxG8NyKBbcTEr58IODSBZKFPiLS4RO1B5WBNsEgMU+wxbgIvBVBggZLM0vbT9dEX8VQyVjP1EzsID1h7mUZYn3DNsP+kWOBc5lrjQfBi+Uj8NMJEAWJQqzC7CJsouxi3OI8EvyS/FKC0sIyorJiO6Tl5OQVFVQUNZR0lY1VzFXN1UzUTTRMNA219LW1dDR0lfRk9UUNeAyZjQhG68ZfTaZMX5p1m7dYVFset0qxDrFxszW2U7YXc+ByZHTCOSNdIFeEG8od78HoyeElvFPGW2KXsA+fL6cfC5nkTwwgBbIGcQULUqRDVENNwlzCKRHJu/MjK6LOUouj82JyYjPjsuKPJhTvqU5sTXq1F+yTTtm1/2TqqwOC6bsPth/CHBbKVMgyyHbMCTySeDQvt/rY3bzh/MUCphMyhRZFgcUHTpaV3CztP/Xu9OIZ7FmOc5LlWudtK/wuxFQerCqsrq65Wfu4bvjih0s/63FX2K6KX9NtcL8edSOz8XRTfXPbza5bPbd7W57c6Wi92lZ6N6V9V4fGPeK9qc6b92sfnHqY/Sihy++x+RPZbvru2af3n53qiew16CP1TfRfe576l/2AyCBq8P2L7qH6l/nDMa9cRtRec75eHR190z52YTzz7e4J53dak8LwLFua/mvm+vuiDykfw2bJn8ifI+ey528szH3V+3ZuifS9+KfU8rPVlF8a6+v/8L8CcgaVj7bEsGBeYxtwOfggghGNJC0D7SrdNP0QwxDjG6Z3xE+kr8xLLGusK2xr7L841jiXuL5yz/FM8Y7w9fPfF7gpWCmULRwmYiUqKYYX+yDeJVEjmSVFkbaUkZGlk53b0Sd3Xb5IIVmRrGSvbKCioCqgRlRbV/+sMaLZpdWoXa6Toxuv56NvYaBgyGmEMHpv/MzkimmeWbS5k4WKJZvlitUb63s2tbZ5dkn2gQ6OjvpO8s4CLiRXrOuy20f3EY9uzzte9TvPeh/fdcgn2ZfqRyH7+nsEOAXaB9kEW1IsQ8xCNcNkwwUiWHbTRCIiV6N+UH9Gr8Wi44jxQgkae5wSo5MKk1v2TqXQ7OdLlUnTPmCT7ncwPuPIocrDbZnDWd9zmI8oHLXPjTh2JK8u/9HxdwXrhZxFysV2J0NLDpaeOdV8urds5syvc8zlEue1K+wukCtjqw5VF8P7XHfd3CXiZcV6xytRV3Ov1TV0Xh+58aUJ08xxU/KWxm2LFrc7ga0xbSl3U9sPdBy8l9F56P7hB1kPcx4d6Try+MiTI905T7OfZfYc6k3vS+3f+zzur6iB3YORL2KGkl4eHD7+qnyk4fWD0ZdvPo2Dt8QJwXfykzpT5tN+M2fff/qoPJv0qfXzr3nNhbgvl7++W2Rfsvye8qPh5/QK96rDWtavzm3/GyP0kTuQn1Ht6EMYR6w4dgF3E59BcKDhphmlPU8XTq/OgGBoZ0xnsiAyEHtJx5htWRhYnrJmsZmwQ+zNHBGcQpxDXNncOtyfeEp5zXi/8ZXxm/F/FigQ1BAcEdorzC/cKuItsipaLKYk1i0eIL4qcVxSSrJNylFqSjpVRkRmSDZnh8GOb3JV8p4KdAptipFKAkr9ymkqCirjqrlq2mqf1Es1zDUWNc9r2Wv90q7TcdfF6t7QI+sT9e8aRBryG/YapRkrGU+blJjawveO2+ZRFlIW7yzLrDysWa2f2+TbOtiR7AbtTzp4Owo7fnC66pzoYuzK4DrsVuke7WHgSes56HVmZ7C3gvfKrvs+eb5efhJ+S+RO/+MBvoGKQaigweBaSkqIU6h0GDrsTfitiOLd8ZGuURpU3mhU9GzMQGx7XH18WULuntTE+KTQZP+9O/e5pTjtd0i1T7M/4JDudNA9Y+ehgMOhmdFZKdmHc/KPlB2tyW08di+vL3/0+OcTqEKJIq/iYyfvl6yckj3tV3bizOOzq+UK5wMqSi70VKGqtWria+vrPl6SvBxSX3tl7ppKw/7r3Y0cTWHNnbf4bqe0vG21amtpl++42Cl1/+pDg0fDjxO6+Z729hzpc3ouOgAGPw69G/7wGrwRGd81UTuFnkn8CD5VzJO/6i6p/XReLd7w/9Y7wY2EUQHgxCEANt7zONQAkHMRALE9ALDBsacdHQBO6gAhYAqgxQ4AWWj/OT8gOPAkABLgAZJADZjB8WUYHFMWgXrQBSbAGsQOKUOOUDR0AmqGXsMxnzTCBZGKqEeMIhmQBsh45CXkFByleaFKUa/gSMwHfQH9CaOCScU8w/Jgw7FtOBKOgmvHc+Jj8f0ERUIRYZWGTPOUVp22mo6dLoceQZ9E/50hlmGJMZEJYsoishIrSGqkXuYQFizLBVZj1im2w+xS7L0cMZwcnK1c/tw03Nd4PHiRvJf4POGIoE8gV9BWiEnouXCRiKeogOiU2EXxaAkNSUiySypP2hOenfOy/Tta5Crl8xX2KVKUHJU1VPhUIdUxtRb1Ao0QTW0teq0R7RqdGF1dPZxen36DwXXDJqNbxq0m90y7zHrMBy1GLaetFqxXbHF2rPaiDmqOVk5k52SXYtdWtxkPkqe+V+TOcu8BH4Kvvl8Sudn/e6BaUFJwewgh1DmsInxxt1lkWdRctFZMduxovFLCsT0LSa7JD/Zpp7SmWqZNpGdmaB8GmX3ZV46cys3PMzuOLLhfmFccUGJ4SrpM8KxIuVKFTWVUdWntk0ugXvWqTYP7jeCm5Jsnbl+709+21MHbafYg5tHZx8+613pk+nY+Pzpwd4g0TB65NDo7zj2hNqk3Lf+e/sOL2aOfd8y1L5h96fymsFiytPzD/ueF5YVVjbWUX3c3948t/xNh/0sAVWACXEEI2AcKQB3oBKPgB0SC5CAbKAI6BjVALxEAIQFH+WmIq4i3cBxvhUxHtiFXUNqoA6huNDs6EN2IwWO8MY1YRmwY9glOGpeLW8R74R8QZAlFNEiaKJpxWmfax3SGdK30WvR34Cj2EaM94ygcp64TC0iypKfMEXDk2czqy0bD1sweyMHK8ZBzD5c01zh3EY8tL463g28/v4EARuCpYKGQr7Cs8KpIt2iZWJS4sQSXxBfJx1LnpVNkPGU1d0jIscvj5VcV5hQnlF4oP1a5rXpRrUT9kAZV01PLUFtSh1FnUXdYr1W/3uCqYYNRk/FtkzbTTrPH5r0WLyzfWE1bL9is2OHsWR3EHNWdrJ39Xfa6lrjddB/2WPMS3GnhHbPrrE+PH0RW8Y8IqAmcChalhIRcDV0ON40o3D0TpUXdG90Wi4qzii9KmEpUTzqaPL3POKU6lT5tz4FpeD/pPWyR+TDbLKf7qEPuWF7Kcd6Cu4WBxfQnm0v9T5PKHpzdW65y/suFq1WxNVp1mIsDly9cSb7mdV2lkb5p4ub12wfu2LSx3x3vqOmkPtB6hO0afFLzdH+PV5/Oc5EBpsFHQ84vJ18lvmYevTbmNL46UT3pPs0w0/Xh8KzlZ8a5Fwtnv4YsqnxH/OhZLl0N+qW47X8kwADazR1AHKjAM8ANhIOD4Ay4DYbh9S8IWUCxUAU0iKBBGMErvwOJQ9ojzyC/oCxQVWg8mop+g3GCV7sNdgBHxv3EFxLUCZM0J2n1aEfokuj56bsY4hklGSeYzhD9SBKk78wPWcpYk9g82fU4pDjZuWi4EdyrPMu8q/xAAAvfQHmEZUW0RR3EgsT3S5yUvAHH3fOyjDsU5Fzl9ylUKPYorahIqLqr5av3azJruWtX6MzpaesfMXhjpGicbTJupmVeaPHFys76ki2tXZj9Y0dJp2znD64WbrUeeE+K10Nv0V0HfSb9DMmVAchA/6B7FNGQjNCZcKuI+kiWqATqWIxR7OV49oR9ez4mucHrVCWlKpUj7Wg66mByxpfDHplXs9ZznI5UHV0+5ph3+TihgHLiQZFUcc7JuVLXU3fKRM/kwXu///nuC5qVVdVMNYm1UxcdL7XUi17JvbrU4H39QaNM07Hm+Vv2ty/fIbQGtrW2EzsC7jXeRz2we1j6aOKxxBNKd+XT8R7OXvu+g/3Xn78dIAzKvXAYor48Olzz6t7IwOup0YU3q+PQW+wE5h1mEkwuT32aHp15+r75Q/nHw7MRn6w/S81h597MNy9kfvH4KvH1y7eWxbQlo++Y750/Un5q/lxYvrDisUpYbVwj/6L7dW3dfcP/0YGKCpvHB0RrAAB6dH39qygA2HwA1vLW11fK19fXzsPBxggAd8O2vjNtnjWMAJzl2kB9V758/vc3nq1vUP+IY/5dgs2TaFMrfBJtlvCpBP4HGO/lAUuS1G0AAABiZVhJZk1NACoAAAAIAAIBEgADAAAAAQABAACHaQAEAAAAAQAAACYAAAAAAAOShgAHAAAAEgAAAFCgAgAEAAAAAQAAAc+gAwAEAAAAAQAAAKYAAAAAQVNDSUkAAABTY3JlZW5zaG90QSy2kwAAAj1pVFh0WE1MOmNvbS5hZG9iZS54bXAAAAAAADx4OnhtcG1ldGEgeG1sbnM6eD0iYWRvYmU6bnM6bWV0YS8iIHg6eG1wdGs9IlhNUCBDb3JlIDYuMC4wIj4KICAgPHJkZjpSREYgeG1sbnM6cmRmPSJodHRwOi8vd3d3LnczLm9yZy8xOTk5LzAyLzIyLXJkZi1zeW50YXgtbnMjIj4KICAgICAgPHJkZjpEZXNjcmlwdGlvbiByZGY6YWJvdXQ9IiIKICAgICAgICAgICAgeG1sbnM6ZXhpZj0iaHR0cDovL25zLmFkb2JlLmNvbS9leGlmLzEuMC8iCiAgICAgICAgICAgIHhtbG5zOnRpZmY9Imh0dHA6Ly9ucy5hZG9iZS5jb20vdGlmZi8xLjAvIj4KICAgICAgICAgPGV4aWY6UGl4ZWxZRGltZW5zaW9uPjE2NjwvZXhpZjpQaXhlbFlEaW1lbnNpb24+CiAgICAgICAgIDxleGlmOlVzZXJDb21tZW50PlNjcmVlbnNob3Q8L2V4aWY6VXNlckNvbW1lbnQ+CiAgICAgICAgIDxleGlmOlBpeGVsWERpbWVuc2lvbj40NjM8L2V4aWY6UGl4ZWxYRGltZW5zaW9uPgogICAgICAgICA8dGlmZjpPcmllbnRhdGlvbj4xPC90aWZmOk9yaWVudGF0aW9uPgogICAgICA8L3JkZjpEZXNjcmlwdGlvbj4KICAgPC9yZGY6UkRGPgo8L3g6eG1wbWV0YT4KL8n3DgAAIUJJREFUeAHtnU2sHcWVx69jYsjYmGA8GokPCSaLwDiCFYz4yIIJCDybITiyN1Ek0LCZzRgxaxBeYwGb2RAFCc0itobgbDCjBFgMTBSzIoKQLIZEgrE0M7bBXwHz5Xm/96btdvt2n1N9q7qq+/5Lerr33e6urvpVdZ86p06dWnf48OGzMyUREAEREAEREAE3ga+5z9SJIiACIiACIiACqwQkPNURREAEREAERCCQgIRnIDCdLgIiIAIiIAISnuoDIiACIiACIhBIQMIzEJhOFwEREAEREAEJT/UBERABERABEQgkIOEZCEyni4AIiIAIiICEp/qACIiACIiACAQSkPAMBKbTRUAEREAEREDCU31ABERABERABAIJSHgGAtPpIiACIiACIiDhqT4gAiIgAiIgAoEEJDwDgel0ERABERABEZDwVB8QAREQAREQgUACEp6BwHS6CIiACIiACEh4Ft4HHn/jxOzdI58XXkoVTwREQASWi4CEZ6HtfeKzr2YPvfzx7JX3z8y2bf16oaVUsURABERgOQlcspzVLrvWH5z4cvbQwY9mvz365ezpuzeXXViVTgREQASWkICEZ2GNjol2x4GPZic+Ozu7dtPXZrtu+kZhJVRxREAEREAEZLYtqA/se++Tc4KTYj1266aCSqeiiIAIiIAIVASkeVYkMn/ufevUbO9bp8+VYvOGdbPt37r03P/6IgIiIAIiUA4BCc/MbYFj0OP/fnK2//efXlCSR275s9nmDTIMXABF/4iACIhAIQQkPDM2BILzwZeOrToG1YuB1onwVBIBERABESiTgFSbTO2CY9BtLxy5SHBSnJ03XmZqna/84UJNNVM1dFsREAERWEoCEp4Zmr3pGNQswiM3b2z+dMH/LGV5+OBxBU+4gIr+EQEREIHhCEh4Dsd69U7PvX169ujrJ1aXosy79c5vXza7bvP6eYfO/VZpnY+/cfLcb/oiAiIgAiIwHAEJz+FYz3a/enz2xJunOu/oWZ7y3Nt/Ws3jV4c/n1WCtDNTHRQBERABEYhKQMIzKs75meEYdM++Ixd51DbPvu/6S02tk7nSD099de5SPHXJX0kEREAERGA4AhKeiVkj7O756dG5jkHNW3s8bPf97pMLLkOQVproBQf0jwiIgAiIQDICEp7J0M5WTaqE2qtrim23u/3qr8/uuGZD2+Fzv+//3cVetghPnIiUREAEREAEhiEg4ZmIM45BeMQSo9aTPHOdzG/Oy4/f5DzkoaxzREAERCAOAQnPOBwvyMXjGFS/gADwHq2T7cna0r/98czsP/7rs7bD+l0EREAERCAiAQnPiDBx3Nlx4JjpGNS8pUfrJO9mCL9mPmycrSQCIiACIpCegIRnJMY4BhFqj+UjIcm77djB/2zXOqv7sf8nARiUREAEREAE0hKQ8IzAF3MpjkEIr9Dk8bAlz/2/9wnFJ97U0pXQNtD5IiACIhBKQMIzlFjjfDS9H/x8bfPqxiHzXwLAeza7xpPWq9HiPPTUoe5ADGbBdIIIiIAIiEAnAQnPTjzdB3EMItRe3+Tddiw0itCPf/OJlq70bRRdJwIiIAIOAhKeDkjNU/o6BtXzCdl2rE8QhN2vHa/fTt9FQAREQAQiEpDwDISJCbWPY1DzNvffcKm57RjXNMPxNfNp+x8zr5autNHR7yIgAiKwGAEJzwB+CLJ79/tC7VnZepankEczHJ+Vb/04ZmUlERABERCB+AQkPJ1McQy6d/+xuRF+nFmcO82z7Vh18rxwfNUx65OwgHvfkvOQxUnHRUAERCCUgISngxjBBxZxDGrewqt1toXja+bX9T/zpdp1pYuQjomACIhAOAEJzw5mCJ2HXv54hvdqrEQAeGuz6+peXeH4qnOsz9W4tyvblimJgAiIgAjEIyDh2cKycgwiZmzM5NU6PeH4vOUirB/ztUoiIAIiIAJxCEh4zuEY0zGonr132zGu8YTjq+dtfdeuKxYhHRcBERABPwEJzwYrHIMItTdv66/GqcH/ekPxkbE3HJ+3ECxdUdxbLy2dJwIiIALdBCQ8a3zwTMUxKIXgJAD8/TdcVrtb+9eQcHztuVx8hPrJeehiLvpFBERABEIJSHiuEEOgsCZy71unQ/m5z/fOdZJhaDg+byFYutInWpE3f50nAiIgAstCYOmFJ4KTiEHWXpmLdAjvtmPVPVIKOPJGs1USAREQARHoT2CphSeOQbe9cKTXVmIhyEPmOikTGmKqtLp05Q0tXUnFV/mKgAgsB4GlFZ6YRlM5BtW7jnfbseqaRcLxVXlYnyy/Udxbi5KOi4AIiEA7gaUUns+9fXr28MHjSRyDmqi9245V1y0Sjq/Kw/NJ1CQlERABERCBfgQu6XfZeK/CMSjl/GadTMi2Y1wXIxxf/f5d33979MvVpSuezbi78tGxdgI3/vh/zAHar3+41R1xqv1OOiICIjA0gaXSPHccSOsY1Gw877Zj1XUxwvFVeXk+n3jzpJaueED1OIc1tZ4lT8/9Jp2Hd49i6xIREAEngaURnszxEShgyBSyPCVmOD5vHXm5P3VIu654eYWc5w1yMZSZPqTsOlcERMAmsDTCc+i9LUO2HaOZYofjs5t+7QyC3mvpipeW77yQIBcMYFKt6/WVVmeJgAj0IbAUwhMHoZTLP+aBD9E6uf6VP8QNQD+vTG2/7X5Nm2a3senzu1frrPLe996n1Vd9ioAIjITA5IUn5tCUkYPmtXPItmNcj6YSe/eWeeVq+w1ztpautNEJ/z00hjBtL+0/nLOuEIGcBCYvPB9f2cvS47gRsxHCtc78msfQZu2YvEvKi0FIHyuHTLcltaLKIgI2gUkLT6L1DLUspUIdsu1Ydc0QgRGqe7V9rsW9lednGx/v7/t/12/j9JQhGb1l13kiIAJ+ApMWnjn2sAwJxUczIeBZc1lCwryNmVupH4FFPKYZvMh03o+7rhKBHAQmKzwxgw29NCVk27GqsUvQOquyYN7GzK3Uj4DlMY1Voiv11Vq78tQxERCBNAQmKTzRAHIIgdC5Tpp06MAIVjfCzI02rBROwAp4sPPb3+jMFI9raf6diHRQBIohMEnhyfxRH6eNRVoldNsx7oV2PHQ5PXXMYe72lKvkc/CW7TK/VxsE8NmW0Pwt7bXtWv0uAiIwLIHJCU9eYjmcL0LnOmnm0rTOquth7pb3Z0XD92lpnbdfvWE1I0I2diUrn65rdUwERGA4ApMTnnvfOjX40pRKqwhpNsxzOQMjWGVdW+Ij5yGLU3XcCrNXCc37/7JbeKK9as1nRVWfIlAugUkJT7wVh16aQtOGbjvGNZjnhl5/yn29aW3pyp+8py/1eWjpVltu/9aa0Lz/hstmXaZbQEr7XOrupMqPhMCkhCda59CJF2Evk23GcHxeRpi/pQXZtKzwesQ53rzh/KNWaaFtOVtabNt1+l0ERGA4Auef6OHumeROhEQbemkKFQnddoxrEEg5w/FRBk9Cm8oxIPGUrZRzML9bbdk01e68sdvrFu6acy6lhVUOEZhPYBLCkxcYe1PmSL2Wp6yY+caSMINr8X57a1lxbLFMYKqtpzuu2TDDO7srWdps17U6JgIikJ7AJelvkf4OmBetOacUpQjddqwqQ0mBEaoydX2ifd5xzZauU5b2mOXZvfPGCwVnBQptlO3g2lIVLP66zevbTtHvIjAaAgzAsbh9eGp+NDW80a+7fP1sTP199MKTBhl615Sqx/bROksKx1fVw/rEHI6GteumbnOjlc/UjtOW1jrdXS0m2kdu3tgpPGGF6faRWzYmxVaqVcHzIoX/8TNnW/l48mi9uJADvN8+ODlf4FDEKy5dN9u2tT1yFVY5nBPx7P/V4c/mKhl/ddX6Gf00Zl+j3PRfFIWu9c/nMa/F1V6N0rYysOT5KF2Qjl545lrQH7rtWNVJxqZ1VuXGLI7HaN3xpTq2rJ+W1smLoO3FxouBl1bXi4X8Y77Q5rXTD37+0byfs//22K0bZ9bglGe/y8/Bk8eiFcUq0zV45z3x4gP9rTbsDds3f/YxXotX3T7AoP70QYRrjL7GYAwmXe3SxZzBKBYZ/mBHH2Cao8TUPfFSYolrZaKhLGeN2ulRv1oPdtvNSg2M0Fbe6nfM4pawqM5dlk9rna7lhd2mlVb8eJGUqhlWZdRneQTQNnccOLbiBzLcmnc0Te7JYKyv4GySJB/yY7tE6lRaGrXwfPyNE1l4MiLqMxrCjGGZ+bJUyHlTRrE8JEqzVTO2Nc/edBRqcvOYwZc1WPy2raM3ijWbe5D/ETIPvnQsmgDzFJopnXv3H012T5wW7/np0eJibo9WeGKS6DJ5eRq97zlWgO+2fMeqddbrk8tMXi9DCd8xp3Ulj1kfE/h913dHHOLFUeKou6vuix6DiTXwWPQeU70ewTnkexGt8NHXT8ydS43JGKVjx4GPVgetMfNdJK9RCk9eJl3zAIsAsa7tEwCePCmzZeaz7l3Ccczky25KRPu2TFPeAdaum+Z749bbepmCxfN8PXvP5nr19d1JAEvc0IJzyIhuWHoQ1KWsgR6l8Hzq0HC2/Ga/7TvXST7XXj5K3E0Es1zm8osKkukHS+tkbWcVjs8qosL1XUjo+b/9ppzSLkTi+o8BbdfSJ1cmASehcYYKTp4LLDLNv4Dbrp66+9UTRZhwRzexwKh/yE5Sb9i+Wid5YKJ7fvuVq3MD1lxZ/Z4lfmd0i9k8hndeifWzymQFRgiNOsX5XS8ieLMso81z1ypv13FeZIsmSwv35o93bIo6eu8/5vMQZl0Jz+7vrCxpqZZ/8B59Z6VP9dFUQwRnFb6UPt7VtmiTOCR6+hLvz39cqe8vd23tqnLyY6MTnrtf6+4kKYl5HDy67k/HffEBBOixrtNGcQyzOTyWbekKI3zL6asZjs9qULxyu4Qn17PEac9diwu6ZlkWWUbRzKvtfwS/1ecR4otYddruvQy/M5ib1ycrwcUUQiU0mzwQoiwt6VpLWr8GIWf11ep8BkPeTTOwwPDH8/XwwY/NOVSEPuXO2WdGZUcErGdkUjVezM+qIy6aJ6Ovp+8e/5wOoz/M58uWLO9XrBOhzi70Ca7rSmMNFs9c/0Mvf9xVtZUB2LoZ5lqlfgTm7cLDYOTQj7auCpc2wcndOPbM965wrUWlLTGZWon2/MXOLav3Dh1cs4qBcqMpWwlNlTLlSt1PbK5StdzXMk20XBblZ+8IynMzNLa/v3n80XownzNyXZbEg2qNukO1zoqdtSaUwYplLq7yKumTfWHnaUX1Mj7zvc1LZ8Go13+R7+8e+eIi0ythQ7EohAouqxxre/x2B1xA6CH8uky01n0o98++v8UUoDwTOdeej0Z4oqJbD6HVKIsct15uoXnvuWuzuUwhNM8c5+c0ow9dX4/XqxX4oK3MHm11bN7aCHtrsMEg0lP3Nm7L/jsCpJ4QXmiSsRNWP6st0TifXbl3DKFNHuRlJQlPgxAj/pyQmvsxGsV1H8Yl32OecGeY4UTM6DxYy5Dmmcfq9aYt+464MZ9Zaz6rYPH1e5b6HYuEtdMRvP7ptk2lVmGU5cIpMUXyvH9/sv2bvfv/vDLzLPHu7UoMHnItXRmF5ukxF3QBXvRYqklpRld0dkZsY045zelDcUMYWJ6JfbXOqg54JFrJWiZjXT/U8YcOftTp9BFTSxmqTqXfBwedrvnNvuWn71thULEg9Im6ZpXJ8+7NFXymeOGJp55lLrAaYJHjfbcd896Tzo4H7pgFKOZ0zOpTTpbWSd0X9cZeC7zfPZAaw7ynZ7G+lqXEfVp4f8SeWqpKaPV97p3KgsD70dI+c01nFC88c4eDS9Uhq47JJ+aJJ++8vP7T6L5j1snp+ZYamOXtisl10bkerre0TwYqJZvJKZu1DhtWy7pGOFU/pd8s2v/aymZpdrwjU92bMllOeJhuczguFi08sWXnWppCo+Hu3XcOi+tDEloLo/GxJjow5vUpJvph0zGjWU9L6DXPb/t/Z8v+n/XzreUy9XOH/M7giTV6XWnVXKvwe12Ieh1LNchnMGQ5aqa6dwXCYw5+9+jn1emDfRYrPHkQc7+MPfb2mC3F/SwTRcz7xc4L8zpm9qmlfe992lklBMKiJtvqBrwozDWfhQaLZz2nNcjAqSSlllJxXKZP+kuqQb7ljIOCkbo9yd9yrGTJztCpWOGJGdAa8aSERafwjHhil2HPdy83O0rse8bML7eZPWZdyItBnOUsEUvrrMpumak4z7NspspviE/CNVpWIiwrOZ6pIeqf8x6e/tK3fNYUwVDtecWl3aJKZtv/b2FAeFyj+3YIz3XeXTE8eYWcwyiLBcJoM2NMvECt0eqY6uVx0PGYWkPq/MjNtvnecuIIud+i52JtYOPlroTmMLQlp6s8UzqWUoBZHua3X71hEJRWHb3hBWMWtlucx7xTQF54blrmn4Dsgk/FDBLLDBd885ULEKBj9sBdW1qUL2xWH+Zt11iDOPqK9WC35d32Ox6GlpmKl1oJJnI0c1f4vUTrD9sYLtPv266KH/MYfpbWyTmx+z55jiUVFxieBsu5NIWGK2GEXHngsn/d2BLmdoROCRwXYYdwsqYOUpnM0D6ttk8VLD6EGQMlixHh91KsPwwp55TPTcWWgZGVrv7n/7ZOGeT48TN2WWMXpDjNM/d6wdxaZ72B0X6fvHOcEVgQnjnmIer8Fv1uaZ3k7zGx9imHZz9Qa/lMn/uGXOMJv4cDnMLvhVANO5f3VaqUwwmnb10s83LffLuuK0rz5GG0nA66KhPjWE5z7bzysx6OTpxbG59Xtq7fMLszEEoRZ7PrvjGPWYuvmZdOGfGHF2OXVgdjnpkcfZaBkRV+j/LjAKeUjkAqrTNdiaeTczHCExOB9TCmxs7LMPWapT51QAD13bi2z/1iXYPAx5lmjPMiCCVr3n1tgHA6Fq5e+SDgcwhPK/welWGbsdTLGHpB00UiEIFAOp0/sHCYyKyXVWCWwaenjpQRXKDaBXjgpjTR1G4V9WtuM3zfyqTUKPuWad51OYLFe8LvMd2Qau3hPA76TQSGJlCE8MQEtPetvCN4wJeodVYdghH82kh+XEtYMMOjxY0p0R9zTx+E8BpS0OPQZ4XfY420wu+FtKDOXZSA5Z2+aP7zri/CbFvCwnocG0o3MTGSx3Px4YPH57Vlsb9hjl8Lel7EWM3kNKQwMgvjOIHByRCezUyteMLvMchTEoGYBLC6dc3vbts6vCgb/o4NooxkrQgujUuS/DvEyydGwfFcfPrus+Yyhhj3ipUH5vgxLV0Zm6aMUxHPUeq5ZYXfi/VETCMfLAwvPrBlGpXpUYvsqgDzJ7kTWmfXqCZ3+Zr3x0FkbDFwMcuPYekKQqjLw7XZFqX8nzpYvCf8Xqo9HUthrHKIQJ1AVuHJA5ljfU4dAN9LnutslrX6Hw9cRn5jSiWY5y1eqYWQdf++x/Fs9ixq75O/N/zenrs298le1xRK4NpN6ztLNia/gM6K9DyYzWzLg16CkxACaKxegcwtPfjSsSIGIJ7+h3l+CPOipyzzzqFPWutpmXvJsXbV4+FKsPjYy1Zg4gm/9+zKYG7oZPko0Nceu3XoUk3nfh5rHP3DaofpELmwJtmE51OH8savrTCMZa6zKm/9k07LS2vHgY+yL/Opl6vrO0Lgl7u2dp2S7ZhnpxLC8aWeW5wHwBOuj2DxsYWnJ/weG7nnGIB+588vye4vMYapiHn9yfPbdZd3a57kwQBlWSNIZTHb0uEsd3dP4y56DlpnjhfhouWuX89Liz0Sx5Iw02OuLzF5dirZ5disOkXdPOH6YgeLx3HK0sTvu/7S6AI7Bb9UeSI8pprQPK3dnaZcf6tdswjP3a+VsdQi17ZjVqOEHmcA8PTd45lvwlyPuaekxIDOmn9nLVkODQtOWBk8TmIEi4+R4GFF/MKE/ew95fa71HNyMBqjc1lI/7CWgLzy/pmQ7CZ17uDCk5FK6k7taSEe/NgmLs99U51DXfB2HENi6Qpm+5JSyVpnxcmzg0usYPGe8HvM/eac77K0Iril3LZtSvvWVn2s+WlZ5qplUs3rluH/wYXn7lfL0DrHPNfZ1jHxdsSMNoaE2Z6ReynJI3Ryz+1wfwZ9XYmByaLrVD3OSY/dujH7lIfHCvDO/37RhWuhY7G0/IUKkfji+2+w3ydjDcG5KLruJ3HR3BvXM9dVgpljalpnHTNmtByhqupl8H4vxXyPBmHFVWZ+3ON96K173/M82qe1G0zXvbEMWf4IsChh8OlxaFmEhcXJMvN3XT+WYwxQrAEblsRlnPscTHgyx1XC0hQ67ZTMtc2HEDPa89uvNCf6m9fl+L+Uh27fe5+a1S9lftyzf2jfYPE8o57we8/8zfDLUuY1kMehpS+Lefer/7ZM2pbnfVlCsJt6+wzxfTDhicu7NbofosKlbjsWs+68VF58YBwCNLcZH4HhCQ/p8XaN2YZtedG2HstCn/i8nvB7xFYuQQOv+Nx+9Ybqa+tnbEHnibbUWpgRHvAMHNHChxSgTPnk1nYHEZ5M2lsu70P1qZK3HYvJAHML6+9KT5jxY7/cQursmR9kHjmnY0yzPh7t01Over4egYC3b+5533qZ+e6Zk+PdE8txiHxKsaA1WaT6n8GSx9Mbc39ov+tTZqZZ7t1/dMXxNO8yoUGEZ0lh2cYYiq9PB+MazC04dpSe1vZyzbN0xeP0seumy4pC6NGCQ7wgEQhPvNnt/Yy2u+e75Q3GPCxovDWterE+BqcxBSSJ2Wm9c9yPvn4i2WAYbXPHgWOru0qVYMVMLjwZJZSwNIWOxOipJA0iZuduy4tO7xk1tl0/xO88CJj1h068DC2nD8z8pWlb9GFPm3ri9GK2tsLv0S5Esirx2aFMHg9zBhOEsqTN+yTeY8sqOOGF9ukdiKOZI+RiedOTD9M7f/0vR4qRJTBJHp4vx0uRis1L3tHTvGvH/BsawzsOQZGzjpjWsAp4lh/EKicar5U8ZkErjxTH8bq1pkI4Ttt3CT1P+D0E9fEzZwedY7LWF9aZ0m8889YMlBCAnM9fF5cqf17cWM7a8sfzuBTloCpzqk/enwff/9QccHJ/mCDs6Dt9nmu4M6fJ3H2pfJMKT+aySliaQmPSiCU5OlCmoRIviZ99f8vstheOFOG01VZvXlJD7g/oWcbgWRrSVp+Uv6+t+TxpPl9dweKZn7IEMHXgHM95Met7+B/+wp0dghbts03A1TPCyoFmxMCJgREOR/PeC2iomPS7LBPck/i6pb7c6/WO9R1PfuYbvWbTqu+w3IVnadtV7Uu+mMNEaJY+0K9YJhOemIM8I/uqIKk/d2aKSZq6Xt78EaB44JZseuIlhHlsCDMpgsN6Aaw+8CuBCUpNvIysNZltweJ5SVnh90qt97xy7bnr8hUh9pnZptW1tH31Yq9+C/mkb7CmuqR3XEj5+57LQKPPewQlaq2vxgkf2bf8Ma9LNudZytIUYE0hAHyMRsckylKDktNav1nMscNTvzFrnVX9PF63aE7z5vk84feq+4zhk5f6UH2beXC2A/SYfcfALrSMvEfGshQutG4h5ycRnmu2anvheUhBFzl3Wec65zFDq3vyzk3zDhXxGyPU1KN5tC6PiS/XDirehkBgeNZ8Nj2KPeH3vGUo6Tz6duoNEhCcCI4h5+ZLYlyVhfr/YudVrv5XXRPzE4XIs/405j2beSURnjnX7TUryMslxPmgef0U/3/klo0ub81cdUd4IuBSJU8AAcxyY3hBerTPZtzed4+ki/eaqs28+bI86yfb8Qxe573EfR7vEgnO87gYvLE3r9cL9/yV/b/RBv/6d1eutMOWuXPV/XMOvzK68GQuqaQJdM/LJRzb+K9gRwyP1pKjpmtOHd3rDhcpl2chNx6CY0iedY7w9NR5DPX1lBENFK3Is4TFkx/nICAQFGMYUHnrFOs8LHu//uHWpANyNE2EJm1QijKUxGFoyJGI1QE8cRmtPKZ4HNM6ZklrcXyuuuPMgZNX7AcFRzZGzPx1pSGclrru7z3GvBvPmxWq7MNT5zV5a49G771LPo/2ZV6S+V4sGcxxWw5izfqgve68cWWpxc0bW/vLtZvWr/pUNK+t/l+Uder8q3Iu+glvBuQIUpzU2Odz0ZUWCEw8onkWred10fL3uX7d4cOHz/a5UNeMgwDmz3ePfr7yEvlixvZMH5z8otP9vqRa8fAMuXSlpLqrLPEJMMDAI5fngEHU8TNfnXsWEJSVoGPAxhKW2AO3+DUqO0cGLjD/4CROa/ZUAbvkICTHwl7Cs+z+5y4dLwNeCnRYOiodtiTzubsijRNxAJH1oAFF/4qACGQnIOGZvQnCC7A6mlvRKDHF8R1hGWqSCr9rnivQCA79aOvSLgvIQ113FQERsAgkmfO0bqrjPgKYXNc0yDVT05hMrr4a2mcxKGDOSsuNbFY6QwREYDgC0jyHY916p7rJtZofmILJtbXCPQ7gzVei00CPqugSERCBCRCQ8By4EZmTZG6yMrmiXS7qlTZwFbLcjmUHeE8qiYAIiEAJBGS2TdQKMrnGBUtEIOZ35QEZl6tyEwER6EdAmmc/bueuksn1HIrkXwjqwCJpJREQARHITUCaZ0ALyOQaACvBqQQ5f+7t0yv7A25MkLuyFAEREAE/AWmec1jJ5DoHSiE/aelKIQ2hYojAkhNYas1TJtfx9X6Wrjx16NRsz11lb602PrIqsQiIQAiBpdE8ZXIN6Rbln6ulK+W3kUooAlMmMGnNE/NrFde13oirHpvX1H/R97ERoF217nNsrabyisB0CCyN5jmdJlNNREAEREAEchOIvp9n7grp/iIgAiIgAiKQmoCEZ2rCyl8EREAERGByBCQ8J9ekqpAIiIAIiEBqAhKeqQkrfxEQAREQgckRkPCcXJOqQiIgAiIgAqkJSHimJqz8RUAEREAEJkdAwnNyTaoKiYAIiIAIpCYg4ZmasPIXAREQARGYHAEJz8k1qSokAiIgAiKQmoCEZ2rCyl8EREAERGByBCQ8J9ekqpAIiIAIiEBqAhKeqQkrfxEQAREQgckRkPCcXJOqQiIgAiIgAqkJSHimJqz8RUAEREAEJkdAwnNyTaoKiYAIiIAIpCYg4ZmasPIXAREQARGYHAEJz8k1qSokAiIgAiKQmoCEZ2rCyl8EREAERGByBCQ8J9ekqpAIiIAIiEBqAhKeqQkrfxEQAREQgckRkPCcXJOqQiIgAiIgAqkJSHimJqz8RUAEREAEJkdAwnNyTaoKiYAIiIAIpCYg4ZmasPIXAREQARGYHAEJz8k1qSokAiIgAiKQmoCEZ2rCyl8EREAERGByBCQ8J9ekqpAIiIAIiEBqAhKeqQkrfxEQAREQgckRkPCcXJOqQiIgAiIgAqkJ/B80JvhWLuywKAAAAABJRU5ErkJggg==;" vertex="1" parent="1">
          <mxGeometry x="508.5" y="40" width="138" height="49.48" as="geometry" />
        </mxCell>
        <mxCell id="el7I0GfivZ1_OaW4JBx--5" value="Trigger Terraform&lt;br&gt;with Resource Name&lt;br&gt;as Variable and&lt;br&gt;Downloaded TFVARS&lt;br&gt;file" style="text;html=1;align=center;verticalAlign=middle;resizable=0;points=[];autosize=1;strokeColor=none;fillColor=none;" vertex="1" parent="1">
          <mxGeometry x="445" y="295" width="140" height="90" as="geometry" />
        </mxCell>
        <mxCell id="el7I0GfivZ1_OaW4JBx--8" style="edgeStyle=orthogonalEdgeStyle;rounded=0;orthogonalLoop=1;jettySize=auto;html=1;entryX=0.492;entryY=1.019;entryDx=0;entryDy=0;entryPerimeter=0;" edge="1" parent="1" source="el7I0GfivZ1_OaW4JBx--3" target="el7I0GfivZ1_OaW4JBx--1">
          <mxGeometry relative="1" as="geometry" />
        </mxCell>
        <mxCell id="el7I0GfivZ1_OaW4JBx--10" value="Download TFVARS&lt;br&gt;file" style="text;html=1;align=center;verticalAlign=middle;resizable=0;points=[];autosize=1;strokeColor=none;fillColor=none;" vertex="1" parent="1">
          <mxGeometry x="200" y="335" width="130" height="40" as="geometry" />
        </mxCell>
        <mxCell id="el7I0GfivZ1_OaW4JBx--12" value="Destroy the&lt;br&gt;Resource" style="text;html=1;align=center;verticalAlign=middle;resizable=0;points=[];autosize=1;strokeColor=none;fillColor=none;" vertex="1" parent="1">
          <mxGeometry x="580" y="130" width="80" height="40" as="geometry" />
        </mxCell>
        <mxCell id="el7I0GfivZ1_OaW4JBx--16" value="&lt;div style=&quot;text-align: center;&quot;&gt;Deletes&amp;nbsp;both TFVARS and&amp;nbsp;TFSTATE files&lt;/div&gt;&lt;span style=&quot;color: rgb(0, 0, 0); font-family: Helvetica; font-size: 12px; font-style: normal; font-variant-ligatures: normal; font-variant-caps: normal; font-weight: 400; letter-spacing: normal; orphans: 2; text-indent: 0px; text-transform: none; widows: 2; word-spacing: 0px; -webkit-text-stroke-width: 0px; background-color: rgb(251, 251, 251); text-decoration-thickness: initial; text-decoration-style: initial; text-decoration-color: initial; float: none; display: inline !important;&quot;&gt;&lt;div style=&quot;text-align: center;&quot;&gt;once Terraform Destroy&lt;/div&gt;&lt;div style=&quot;text-align: center;&quot;&gt;the Resource&lt;/div&gt;&lt;/span&gt;" style="text;whiteSpace=wrap;html=1;" vertex="1" parent="1">
          <mxGeometry x="140" y="110" width="130" height="70" as="geometry" />
        </mxCell>
        <mxCell id="el7I0GfivZ1_OaW4JBx--17" value="" style="image;aspect=fixed;html=1;points=[];align=center;fontSize=12;image=img/lib/azure2/storage/Storage_Accounts.svg;" vertex="1" parent="1">
          <mxGeometry x="170" y="39.99999999999999" width="65" height="52" as="geometry" />
        </mxCell>
        <mxCell id="el7I0GfivZ1_OaW4JBx--18" value="" style="rounded=1;whiteSpace=wrap;html=1;fillColor=#FFFF00;opacity=10;" vertex="1" parent="1">
          <mxGeometry x="100" y="15" width="610" height="370" as="geometry" />
        </mxCell>
      </root>
    </mxGraphModel>
  </diagram>
</mxfile>
